<svg width="662" height="165" viewBox="0 0 662 165" fill="none" xmlns="http://www.w3.org/2000/svg">
<path fill-rule="evenodd" clip-rule="evenodd" d="M91.935 2.96223C83.3852 13.8748 92.5456 39.9436 99.5687 47.5217C100.79 48.7342 102.927 50.2498 104.76 49.9467C106.286 49.6436 106.897 48.4311 106.897 46.6123C107.508 40.2467 107.202 36.306 109.034 29.6373C111.783 20.8466 114.836 10.8435 110.256 4.17474C106.897 -0.675273 95.2938 -1.58465 91.935 2.96223ZM36.6669 26.9092C41.5525 37.5186 53.7664 48.7342 65.0643 53.5842C74.2248 57.5248 74.5301 53.2811 72.698 46.0061C69.9499 34.7904 65.3697 15.0873 53.7664 12.056C43.6899 9.32787 32.6974 18.4216 36.6669 26.9092ZM126.134 54.7967C126.745 58.4342 133.768 56.3123 138.959 51.7655C144.455 47.8248 148.73 46.3092 151.783 43.2779C161.249 35.0935 149.951 25.9998 141.401 29.9404C136.516 32.3654 124.607 45.3998 126.134 54.7967ZM58.9573 143.613C42.4685 154.828 63.5376 166.044 69.0338 154.222C73.3087 145.431 70.8659 135.428 58.9573 143.613ZM44.3006 124.212C22.3156 147.25 -4.86043 114.512 32.0867 106.631C52.2397 102.387 62.0108 105.722 44.3006 124.212ZM11.323 55.7061C28.7279 53.2811 47.0488 61.7686 54.9878 77.5311C58.9573 85.1093 51.0183 86.0186 42.7739 85.1093C33.3081 84.1999 22.3156 82.6843 13.4605 79.653C-1.5016 74.4999 -6.38718 60.253 11.323 55.7061ZM140.791 87.2312C158.501 78.1374 176.211 102.387 144.15 131.487C123.691 150.281 82.4692 113.603 96.5152 90.2624C102.317 80.2593 115.752 81.4718 124.913 86.928C137.126 94.203 128.271 93.5968 140.791 87.2312ZM139.569 72.9842C168.883 48.7342 213.464 84.503 177.738 122.697C167.967 133.003 156.363 144.825 142.928 156.95C131.325 167.559 131.63 166.953 117.584 159.375C105.676 153.009 95.5991 146.341 87.0494 140.278C59.8734 121.181 55.2932 91.778 65.9803 73.5905C78.805 52.0686 109.951 58.7373 125.829 72.9842C134.989 80.8655 130.103 80.8655 139.569 72.9842Z" fill="url(#paint0_linear_4027_19)"/>
<g clip-path="url(#clip0_4027_19)">
<path fill-rule="evenodd" clip-rule="evenodd" d="M442.868 29.5998C442.721 45.9071 459.138 40.023 459.138 26.6577C458.339 15.4359 443.015 13.8388 442.868 29.5998Z" fill="#1D1D1B"/>
<path d="M244.315 94.8505C248.246 96.5106 251.756 97.7295 254.867 98.507C257.978 99.2635 261.215 99.6628 264.6 99.6628C268.467 99.6628 271.999 99.1164 275.236 98.0237C278.473 96.9309 281.226 95.4389 283.559 93.5055C285.872 91.5932 287.658 89.2606 288.941 86.5707C290.202 83.8388 290.832 80.8547 290.832 77.5975C290.832 73.0583 289.655 69.2337 287.259 66.1445C284.884 63.0554 280.911 60.1764 275.362 57.5495L269.182 54.5865C267.879 53.956 266.786 53.4097 265.903 52.9683C264.999 52.506 264.263 52.1068 263.696 51.7075C263.107 51.3292 262.624 50.972 262.266 50.6147C261.909 50.2575 261.552 49.8372 261.236 49.3118C260.795 48.8075 260.459 48.156 260.248 47.3364C260.059 46.5379 259.954 45.7603 259.954 45.0038C259.954 42.5661 260.816 40.6328 262.54 39.1828C264.263 37.7328 266.575 37.0183 269.434 37.0183C272.293 37.0183 275.088 37.6487 277.716 38.8886C280.364 40.1494 283.16 42.1038 286.103 44.7937V31.3863C280.596 29.453 275.341 28.4863 270.338 28.4863C266.617 28.4863 263.17 29.0117 259.996 30.0414C256.822 31.0501 254.09 32.4791 251.756 34.2653C249.444 36.0306 247.637 38.1741 246.333 40.6748C245.03 43.1545 244.379 45.8444 244.379 48.7234C244.379 51.8125 245.177 54.7126 246.775 57.4445C248.372 60.1764 250.6 62.488 253.48 64.3373C254.531 65.0518 255.645 65.7032 256.822 66.3547C257.978 67.0061 259.345 67.6576 260.816 68.3721L266.113 70.9569C269.371 72.554 271.725 74.1721 273.113 75.7482C274.521 77.3453 275.236 79.2156 275.236 81.3801C275.236 84.154 274.164 86.3816 271.999 88.1048C269.834 89.828 267.059 90.6896 263.675 90.6896C260.291 90.6896 257.138 89.9751 254.027 88.5461C250.916 87.1171 247.679 84.7424 244.273 81.5062V94.8295L244.315 94.8505ZM349.436 98.5911H365.6C365.537 97.5193 365.474 96.3425 365.39 95.0606C365.327 93.7787 365.285 92.4968 365.221 91.257C365.158 90.0171 365.095 88.8193 365.074 87.7265C365.032 86.5917 365.011 85.6461 365.011 84.8895V29.453H349.541C349.751 31.6805 349.898 34.0132 349.982 36.4509C350.066 38.8886 350.129 41.1161 350.129 43.1545V84.8685C350.129 86.1504 350.108 87.7896 350.045 89.7649C349.982 91.7613 349.856 93.6106 349.751 95.3338C349.688 95.9853 349.625 96.5106 349.625 96.9519C349.625 97.3512 349.562 97.8766 349.415 98.5911M318.957 56.6669C321.626 56.6669 323.623 58.0959 324.884 60.9539C326.167 63.7909 326.797 68.225 326.797 74.2141C326.797 85.9193 324.191 91.7613 318.957 91.7613C313.723 91.7613 311.032 85.9193 311.032 74.2141C311.032 68.225 311.642 63.7699 312.924 60.9539C314.206 58.0959 316.224 56.6669 318.957 56.6669ZM295.646 74.2141C295.646 78.1439 296.171 81.6533 297.243 84.8265C298.315 87.9997 299.892 90.6686 301.91 92.8751C303.928 95.0606 306.387 96.7838 309.267 97.9396C312.146 99.1375 315.383 99.7259 318.957 99.7259C322.53 99.7259 325.788 99.1375 328.605 97.9396C331.464 96.7628 333.86 95.0606 335.857 92.8751C337.854 90.6686 339.388 87.9787 340.46 84.8265C341.532 81.6743 342.058 78.1439 342.058 74.2141C342.058 70.2844 341.532 66.796 340.46 63.6228C339.388 60.4496 337.854 57.7807 335.857 55.5742C333.86 53.3676 331.464 51.6865 328.605 50.5096C325.788 49.3118 322.551 48.7234 318.957 48.7234C315.362 48.7234 312.125 49.3118 309.267 50.5096C306.387 51.6865 303.949 53.3676 301.91 55.5742C299.892 57.7807 298.336 60.4706 297.243 63.6228C296.171 66.796 295.646 70.3264 295.646 74.2141Z" fill="#1D1D1B"/>
<path d="M645.836 88.231C644.533 89.3237 643.293 90.1013 642.116 90.5426C640.96 90.9839 639.677 91.1941 638.29 91.1941C636.125 91.1941 634.38 90.5426 633.014 89.2397C631.648 87.9368 630.954 86.2346 630.954 84.1962C630.954 80.3085 633.476 77.0933 638.5 74.6135L642.221 72.7853C642.662 72.47 643.167 72.1968 643.671 71.9237C644.197 71.6715 644.911 71.2512 645.836 70.6838V88.231ZM645.542 64.1482C643.04 64.6736 640.939 65.199 639.131 65.7033C637.344 66.2077 635.326 66.9222 633.098 67.8048C627.549 69.9693 623.513 72.47 620.991 75.2229C618.468 78.0179 617.207 81.4012 617.207 85.436C617.207 89.66 618.637 93.0854 621.516 95.7122C624.396 98.318 628.179 99.6419 632.888 99.6419C635.557 99.6419 637.912 99.2426 639.951 98.4861C641.968 97.7086 643.965 96.4267 645.92 94.6405C645.92 95.5441 645.962 96.2586 646.025 96.7629C646.088 97.2673 646.278 97.8767 646.614 98.5702H662C661.664 97.4984 661.454 96.6368 661.37 96.0694C661.265 95.5021 661.16 94.8716 661.012 94.1571C660.739 92.8122 660.571 91.4462 660.487 90.0803C660.382 88.7143 660.34 87.1172 660.34 85.2469V63.749C660.34 58.9576 658.196 55.196 653.95 52.4851C649.704 49.7953 643.881 48.4293 636.524 48.4293C633.897 48.4293 631.501 48.5344 629.273 48.7445C627.044 48.9967 624.501 49.354 621.642 49.8583V60.7859C624.375 59.1258 626.792 57.9279 628.873 57.2344C630.954 56.541 633.056 56.2047 635.158 56.2047C638.017 56.2047 640.434 56.7931 642.347 58.012C644.26 59.2308 645.29 60.87 645.416 62.9084L645.521 64.1482H645.542ZM611.238 50.1525C609.157 49.5851 607.244 49.1648 605.52 48.9547C603.797 48.7445 602.01 48.6185 600.16 48.6185C596.04 48.6185 592.278 49.2909 588.788 50.6569C585.32 51.9808 582.356 53.8511 579.834 56.2468C577.312 58.6634 575.357 61.5214 573.948 64.8417C572.561 68.162 571.846 71.7766 571.846 75.6643C571.846 79.2367 572.414 82.494 573.57 85.415C574.726 88.3151 576.303 90.8158 578.363 92.8962C580.422 94.9767 582.924 96.5738 585.825 97.7296C588.725 98.8854 591.941 99.4528 595.473 99.4528C599.004 99.4528 602.451 98.9274 605.478 97.8767C608.484 96.826 611.742 95.0818 615.273 92.6441L610.754 86.0245C608.925 87.8107 607.139 89.0926 605.415 89.8701C603.691 90.6267 601.8 91.0259 599.698 91.0259C597.848 91.0259 596.187 90.6267 594.632 89.8281C593.097 89.0295 591.794 87.8948 590.659 86.4237C589.566 84.9317 588.704 83.1875 588.074 81.1281C587.464 79.0896 587.149 76.8621 587.149 74.4244C587.149 71.9867 587.485 69.486 588.137 67.2794C588.788 65.0729 589.713 63.1816 590.869 61.6265C592.046 60.0504 593.434 58.8316 595.031 57.9279C596.629 57.0243 598.415 56.583 600.37 56.583C602.325 56.583 604.175 56.9192 605.856 57.5917C607.559 58.2642 609.367 59.3989 611.259 60.9961V50.1735L611.238 50.1525ZM519.255 98.5702H535.692C535.587 97.2252 535.461 96.0484 535.398 95.0397C535.356 93.989 535.251 92.9803 535.23 91.9716C535.167 90.9629 535.104 89.8281 535.104 88.6093V62.341C536.365 60.6808 537.521 59.525 538.635 58.8316C539.77 58.1591 541.073 57.8229 542.65 57.8229C546.959 57.8229 549.124 60.1134 549.124 64.6316V84.1962C549.124 84.7005 549.124 85.394 549.04 86.2556C548.977 87.1172 548.893 88.0839 548.788 89.2187C548.704 90.3535 548.619 91.5303 548.556 92.7702C548.493 94.031 548.43 95.2709 548.346 96.4687L548.262 98.5702H564.616C564.489 97.1202 564.384 95.9854 564.321 95.2078C564.258 94.4513 564.174 93.5477 564.111 92.539C564.048 91.131 564.006 89.723 563.964 88.315C563.964 86.9281 563.943 85.4781 563.943 84.0071V64.4425C563.943 61.3953 563.586 58.9366 562.892 57.0663C562.219 55.196 561.126 53.6409 559.634 52.3591C558.205 51.2663 556.46 50.4047 554.421 49.7322C552.403 49.0808 550.301 48.7235 548.157 48.7235C543.743 48.7235 539.35 50.6148 535.041 54.3975V49.8793H519.444C519.717 52.4851 519.885 54.9228 519.991 57.1084C520.075 59.3149 520.138 61.5635 520.138 63.8751V83.8389C520.138 85.9404 520.075 88.189 519.927 90.6056C519.801 93.0013 519.57 95.6492 519.255 98.6122M494.367 88.252C493.064 89.3448 491.803 90.1223 490.647 90.5636C489.47 91.0049 488.188 91.2151 486.821 91.2151C484.656 91.2151 482.891 90.5636 481.524 89.2607C480.158 87.9578 479.485 86.2556 479.485 84.2172C479.485 80.3295 482.008 77.1143 487.031 74.6345L490.731 72.8063C491.193 72.4911 491.677 72.2179 492.223 71.9447C492.749 71.6925 493.464 71.2722 494.367 70.7048V88.252ZM494.073 64.1693C491.572 64.6946 489.47 65.22 487.641 65.7243C485.875 66.2287 483.857 66.9432 481.629 67.8258C476.08 69.9903 472.044 72.4911 469.543 75.244C467.021 78.0389 465.759 81.4223 465.759 85.4571C465.759 89.681 467.189 93.1064 470.068 95.7332C472.948 98.339 476.753 99.6629 481.44 99.6629C484.11 99.6629 486.485 99.2637 488.482 98.5071C490.5 97.7296 492.497 96.4477 494.451 94.6615C494.451 95.5651 494.493 96.2796 494.536 96.7839C494.599 97.2883 494.809 97.8977 495.145 98.5912H510.511C510.195 97.5194 509.985 96.6579 509.901 96.0905C509.796 95.5231 509.691 94.8926 509.544 94.1781C509.27 92.8332 509.102 91.4672 508.997 90.1013C508.913 88.7353 508.85 87.1382 508.85 85.2679V63.77C508.85 58.9787 506.748 55.217 502.502 52.5062C498.256 49.8163 492.434 48.4503 485.056 48.4503C482.449 48.4503 480.011 48.5554 477.825 48.7656C475.597 49.0177 473.053 49.375 470.174 49.8793V60.8069C472.948 59.1468 475.344 57.9489 477.425 57.2555C479.506 56.562 481.608 56.2257 483.689 56.2257C486.569 56.2257 488.986 56.8141 490.878 58.033C492.812 59.2518 493.821 60.891 493.968 62.9294L494.073 64.1693ZM441.439 98.6122H457.814C457.604 96.1115 457.457 93.7999 457.373 91.6984C457.267 89.5969 457.225 87.3274 457.225 84.8897V49.8793H441.545C441.671 51.2663 441.776 52.5692 441.902 53.767C441.986 54.9439 442.07 56.4989 442.133 58.4113C442.196 59.441 442.217 60.3446 442.217 61.1011V84.9737C442.217 86.844 442.154 89.0085 442.049 91.4883C441.902 93.989 441.713 96.3636 441.439 98.5912M398.454 89.8701V66.649H403.919C412.937 66.649 417.435 70.5367 417.435 78.3541C417.435 82.1157 416.447 84.9737 414.429 86.9281C412.453 88.8824 409.468 89.8491 405.58 89.8491H398.433L398.454 89.8701ZM398.328 58.033V37.9851L404.003 37.8169C407.934 37.6909 410.877 38.4684 412.832 40.1706C414.786 41.8517 415.774 44.3735 415.774 47.7989C415.774 54.6286 411.612 58.033 403.331 58.033H398.328ZM381.281 98.5912H410.877C414.513 98.5912 417.729 98.2129 420.462 97.4354C422.543 96.868 424.476 96.0064 426.2 94.8506C427.924 93.6948 429.395 92.3288 430.593 90.7317C431.812 89.1136 432.758 87.3484 433.452 85.352C434.125 83.3556 434.482 81.2962 434.482 79.1107C434.482 74.1932 433.032 70.2425 430.11 67.2794C427.209 64.2954 422.984 62.4671 417.435 61.7526C422.122 60.975 425.78 59.2308 428.365 56.5199C430.909 53.8301 432.212 50.3627 432.212 46.1177C432.212 42.2931 431.056 38.9307 428.744 36.1148C426.431 33.2568 423.32 31.3655 419.39 30.3988C418.15 30.0836 416.825 29.8314 415.417 29.6843C414.009 29.5372 412.474 29.4531 410.772 29.4531H381.386C381.533 30.777 381.617 32.0379 381.68 33.1307C381.743 34.2655 381.806 35.3372 381.89 36.3879C381.932 37.4597 381.974 38.5314 381.974 39.6032V43.1547L382.185 84.9737L381.89 89.5759L381.68 92.539L381.47 96.9521L381.26 98.5912H381.281Z" fill="#1D1D1B"/>
<path d="M261.615 117.399C263.359 118.323 264.726 119.626 265.692 121.307C266.68 122.989 267.164 124.922 267.164 127.065C267.164 129.209 266.659 131.184 265.692 132.865C264.705 134.547 263.359 135.85 261.615 136.774C259.891 137.699 257.936 138.161 255.771 138.161C253.921 138.161 252.24 137.804 250.747 137.068C249.255 136.333 248.036 135.261 247.069 133.853V146H244V116.18H246.964V120.488C247.889 119.059 249.108 117.945 250.642 117.168C252.156 116.39 253.879 116.012 255.792 116.012C257.936 116.012 259.87 116.474 261.615 117.399ZM259.912 134.505C261.215 133.811 262.245 132.802 262.981 131.499C263.717 130.197 264.095 128.726 264.095 127.065C264.095 125.405 263.717 123.934 262.981 122.652C262.245 121.37 261.215 120.362 259.912 119.647C258.609 118.933 257.158 118.576 255.561 118.576C253.963 118.576 252.471 118.933 251.189 119.647C249.907 120.362 248.877 121.37 248.141 122.652C247.405 123.934 247.027 125.405 247.027 127.065C247.027 128.726 247.405 130.197 248.141 131.499C248.877 132.802 249.886 133.811 251.189 134.505C252.471 135.219 253.942 135.555 255.561 135.555C257.179 135.555 258.609 135.198 259.912 134.505Z" fill="#1D1D1B"/>
<path d="M294.49 117.147C295.919 116.411 297.706 116.033 299.808 116.033V118.891L299.072 118.849C296.655 118.849 294.784 119.564 293.418 120.972C292.052 122.38 291.379 124.355 291.379 126.898V137.993H288.289V116.201H291.253V120.467C291.989 118.996 293.061 117.904 294.49 117.147Z" fill="#1D1D1B"/>
<path d="M323.351 136.754C321.585 135.808 320.198 134.484 319.168 132.803C318.159 131.122 317.654 129.209 317.654 127.087C317.654 124.964 318.159 123.052 319.168 121.371C320.177 119.69 321.585 118.366 323.351 117.441C325.116 116.496 327.113 116.033 329.32 116.033C331.527 116.033 333.503 116.496 335.269 117.441C337.035 118.387 338.422 119.69 339.431 121.371C340.44 123.052 340.923 124.964 340.923 127.087C340.923 129.209 340.419 131.122 339.431 132.803C338.422 134.484 337.035 135.808 335.269 136.754C333.503 137.699 331.506 138.183 329.32 138.183C327.134 138.183 325.137 137.699 323.351 136.754ZM333.692 134.526C334.975 133.833 335.984 132.824 336.719 131.521C337.455 130.218 337.812 128.747 337.812 127.087C337.812 125.427 337.455 123.956 336.719 122.653C335.984 121.35 334.996 120.362 333.692 119.648C332.41 118.954 330.939 118.597 329.32 118.597C327.702 118.597 326.23 118.954 324.948 119.648C323.666 120.341 322.636 121.35 321.9 122.653C321.165 123.956 320.786 125.427 320.786 127.087C320.786 128.747 321.165 130.218 321.9 131.521C322.636 132.824 323.645 133.833 324.948 134.526C326.23 135.241 327.702 135.577 329.32 135.577C330.939 135.577 332.41 135.22 333.692 134.526Z" fill="#1D1D1B"/>
<path d="M366.566 110.548C365.894 111.242 365.536 112.25 365.536 113.616V116.18H372.578V118.66H365.62V137.951H362.531V118.66H358.432V116.18H362.531V113.49C362.531 111.494 363.14 109.939 364.338 108.762C365.536 107.606 367.239 107.018 369.446 107.018C370.308 107.018 371.149 107.144 371.968 107.375C372.788 107.606 373.461 107.942 374.007 108.384L372.956 110.59C372.052 109.876 370.917 109.518 369.551 109.518C368.185 109.518 367.218 109.855 366.524 110.548" fill="#1D1D1B"/>
<path d="M411.087 127.99H391.938C392.106 130.26 393.031 132.088 394.67 133.475C396.331 134.862 398.412 135.576 400.934 135.576C402.363 135.576 403.667 135.345 404.844 134.841C406.042 134.357 407.072 133.643 407.934 132.697L409.678 134.61C408.669 135.765 407.387 136.648 405.874 137.257C404.36 137.867 402.679 138.161 400.85 138.161C398.496 138.161 396.415 137.678 394.607 136.732C392.799 135.786 391.37 134.463 390.361 132.781C389.352 131.1 388.848 129.188 388.848 127.065C388.848 124.943 389.331 123.031 390.298 121.349C391.265 119.668 392.61 118.344 394.292 117.42C395.994 116.474 397.886 116.012 400.009 116.012C402.132 116.012 404.024 116.474 405.706 117.42C407.387 118.365 408.711 119.668 409.657 121.328C410.624 123.01 411.087 124.901 411.087 127.065L411.045 127.969L411.087 127.99ZM394.481 120.551C392.989 121.896 392.148 123.64 391.938 125.784H408.165C407.955 123.64 407.114 121.896 405.621 120.551C404.129 119.206 402.258 118.533 400.03 118.533C397.802 118.533 395.973 119.206 394.481 120.551Z" fill="#1D1D1B"/>
<path d="M433.031 137.404C431.329 136.9 430.004 136.248 429.059 135.471L430.446 133.159C431.413 133.874 432.611 134.462 434.061 134.924C435.512 135.387 437.025 135.618 438.581 135.618C440.662 135.618 442.217 135.303 443.205 134.672C444.214 134.063 444.697 133.18 444.697 132.045C444.697 131.247 444.424 130.616 443.878 130.154C443.331 129.692 442.637 129.356 441.797 129.124C440.956 128.893 439.842 128.662 438.454 128.431C436.605 128.095 435.112 127.758 433.977 127.422C432.842 127.086 431.875 126.498 431.076 125.657C430.278 124.837 429.878 123.682 429.878 122.211C429.878 120.382 430.677 118.89 432.275 117.734C433.872 116.579 436.079 115.99 438.938 115.99C440.409 115.99 441.902 116.179 443.373 116.558C444.844 116.936 446.064 117.419 447.031 118.029L445.685 120.382C443.793 119.142 441.544 118.512 438.938 118.512C436.962 118.512 435.491 118.848 434.482 119.5C433.473 120.172 432.989 121.034 432.989 122.105C432.989 122.946 433.263 123.598 433.83 124.102C434.398 124.606 435.091 124.963 435.932 125.195C436.773 125.426 437.929 125.678 439.421 125.909C441.25 126.245 442.721 126.561 443.814 126.897C444.908 127.233 445.853 127.8 446.652 128.599C447.43 129.398 447.829 130.511 447.829 131.919C447.829 133.832 446.988 135.345 445.328 136.458C443.667 137.572 441.355 138.14 438.391 138.14C436.542 138.14 434.755 137.887 433.073 137.383" fill="#1D1D1B"/>
<path d="M469.102 137.404C467.399 136.9 466.075 136.248 465.129 135.471L466.516 133.159C467.483 133.874 468.681 134.462 470.132 134.924C471.582 135.387 473.095 135.618 474.651 135.618C476.732 135.618 478.287 135.303 479.275 134.672C480.284 134.063 480.768 133.18 480.768 132.045C480.768 131.247 480.494 130.616 479.948 130.154C479.401 129.692 478.708 129.356 477.867 129.124C477.026 128.893 475.912 128.662 474.525 128.431C472.675 128.095 471.183 127.758 470.048 127.422C468.912 127.086 467.946 126.498 467.147 125.657C466.348 124.837 465.949 123.682 465.949 122.211C465.949 120.382 466.747 118.89 468.345 117.734C469.942 116.579 472.15 115.99 475.008 115.99C476.48 115.99 477.972 116.179 479.443 116.558C480.915 116.936 482.134 117.419 483.101 118.029L481.756 120.382C479.864 119.142 477.615 118.512 475.008 118.512C473.032 118.512 471.561 118.848 470.552 119.5C469.543 120.172 469.06 121.034 469.06 122.105C469.06 122.946 469.333 123.598 469.9 124.102C470.468 124.606 471.162 124.963 472.002 125.195C472.843 125.426 473.999 125.678 475.492 125.909C477.32 126.245 478.792 126.561 479.885 126.897C480.978 127.233 481.924 127.8 482.722 128.599C483.5 129.398 483.9 130.511 483.9 131.919C483.9 133.832 483.059 135.345 481.398 136.458C479.738 137.572 477.426 138.14 474.462 138.14C472.612 138.14 470.825 137.887 469.144 137.383" fill="#1D1D1B"/>
<path d="M504.31 110.801C503.868 110.381 503.658 109.897 503.658 109.309C503.658 108.721 503.868 108.279 504.31 107.859C504.751 107.439 505.277 107.229 505.907 107.229C506.538 107.229 507.084 107.418 507.526 107.838C507.967 108.237 508.177 108.721 508.177 109.267C508.177 109.876 507.967 110.381 507.526 110.801C507.084 111.221 506.559 111.431 505.907 111.431C505.256 111.431 504.73 111.221 504.31 110.801ZM504.352 116.181H507.442V137.973H504.352V116.181Z" fill="#1D1D1B"/>
<path d="M534.241 136.754C532.476 135.808 531.088 134.484 530.058 132.803C529.049 131.122 528.545 129.209 528.545 127.087C528.545 124.964 529.049 123.052 530.058 121.371C531.067 119.69 532.476 118.366 534.241 117.441C536.007 116.496 538.004 116.033 540.211 116.033C542.418 116.033 544.394 116.496 546.16 117.441C547.925 118.387 549.312 119.69 550.321 121.371C551.33 123.052 551.814 124.964 551.814 127.087C551.814 129.209 551.309 131.122 550.321 132.803C549.312 134.484 547.925 135.808 546.16 136.754C544.394 137.699 542.397 138.183 540.211 138.183C538.025 138.183 536.028 137.699 534.241 136.754ZM544.583 134.526C545.865 133.833 546.874 132.824 547.61 131.521C548.346 130.218 548.703 128.747 548.703 127.087C548.703 125.427 548.346 123.956 547.61 122.653C546.874 121.35 545.886 120.362 544.583 119.648C543.301 118.954 541.829 118.597 540.211 118.597C538.592 118.597 537.121 118.954 535.839 119.648C534.557 120.341 533.527 121.35 532.791 122.653C532.055 123.956 531.677 125.427 531.677 127.087C531.677 128.747 532.055 130.218 532.791 131.521C533.527 132.824 534.536 133.833 535.839 134.526C537.121 135.241 538.592 135.577 540.211 135.577C541.829 135.577 543.301 135.22 544.583 134.526Z" fill="#1D1D1B"/>
<path d="M591.415 118.408C593.118 120.005 593.959 122.317 593.959 125.343V137.972H590.869V125.637C590.869 123.367 590.28 121.644 589.082 120.467C587.884 119.269 586.203 118.681 583.995 118.681C581.536 118.681 579.581 119.375 578.152 120.783C576.723 122.169 576.008 124.103 576.008 126.562V137.993H572.918V116.201H575.882V120.215C576.723 118.891 577.9 117.861 579.392 117.126C580.884 116.39 582.608 116.033 584.584 116.033C587.464 116.033 589.734 116.832 591.436 118.408" fill="#1D1D1B"/>
<path d="M632.025 118.155C633.622 119.584 634.421 121.686 634.421 124.481V137.993H631.457V134.589C630.764 135.723 629.734 136.606 628.388 137.236C627.043 137.867 625.446 138.182 623.575 138.182C621.031 138.182 618.993 137.594 617.479 136.438C615.966 135.282 615.209 133.748 615.209 131.836C615.209 129.923 615.903 128.494 617.311 127.36C618.719 126.225 620.947 125.657 624.037 125.657H631.31V124.334C631.31 122.463 630.764 121.034 629.65 120.047C628.557 119.059 626.938 118.576 624.815 118.576C623.365 118.576 621.977 118.807 620.632 119.248C619.308 119.71 618.152 120.341 617.185 121.139L615.798 118.933C616.954 117.987 618.341 117.273 619.98 116.768C621.599 116.264 623.323 116.012 625.109 116.012C628.094 116.012 630.385 116.726 631.983 118.134M628.493 134.694C629.734 133.937 630.659 132.844 631.268 131.394V127.822H624.079C620.17 127.822 618.215 129.125 618.215 131.71C618.215 132.971 618.719 133.979 619.728 134.715C620.737 135.45 622.167 135.807 623.995 135.807C625.824 135.807 627.232 135.429 628.472 134.673" fill="#1D1D1B"/>
<path d="M660.697 107.25H657.607V137.973H660.697V107.25Z" fill="#1D1D1B"/>
</g>
<defs>
<linearGradient id="paint0_linear_4027_19" x1="180.155" y1="154.594" x2="14.7147" y2="18.5189" gradientUnits="userSpaceOnUse">
<stop stop-color="#DB1117"/>
<stop offset="1" stop-color="#ED9108"/>
</linearGradient>
<clipPath id="clip0_4027_19">
<rect width="418" height="128" fill="white" transform="translate(244 18)"/>
</clipPath>
</defs>
</svg>
