<svg width="38" height="36" viewBox="0 0 38 36" fill="none" xmlns="http://www.w3.org/2000/svg">
<g clip-path="url(#clip0_288_225)">
<path d="M27.8003 0.992188H10.0456C4.76078 0.992188 0.476562 5.16556 0.476562 10.3137V25.6997C0.476562 30.8478 4.76078 35.0212 10.0456 35.0212H27.8003C33.0851 35.0212 37.3693 30.8478 37.3693 25.6997V10.3137C37.3693 5.16556 33.0851 0.992188 27.8003 0.992188Z" fill="#F8F8F8"/>
<path d="M15.9035 35.9697C13.3706 35.9742 10.8354 36.0416 8.30592 35.9596C6.93397 35.9146 5.5966 35.5598 4.38721 34.8309C3.06484 34.0335 2.00302 33.0081 1.36316 31.6335C0.940042 30.7261 0.586102 29.7849 0.506552 28.7584C0.471965 28.3148 0.476576 27.8712 0.438531 27.4299C0.412014 27.1266 0.539986 27.0559 0.805153 27.1648C2.90458 28.0318 5.63234 26.5101 6.26529 24.4245C6.95472 22.1559 5.98052 19.9592 4.09783 18.9608C3.06599 18.4139 1.96843 18.3723 0.858186 18.6037C0.522692 18.6733 0.440837 18.6272 0.440837 18.324C0.441989 14.7661 0.38665 11.2071 0.469659 7.65035C0.50194 6.24988 0.888162 4.88311 1.76667 3.68704C2.15635 3.15695 2.46302 2.56509 2.97837 2.13832C4.25348 1.08264 5.70036 0.378475 7.38129 0.167337C8.68983 0.00224614 10.003 0 11.3196 0C16.9331 0.00449228 22.5465 0 28.1588 0.00561535C28.8414 0.00561535 29.5216 0.0662611 30.1983 0.15723C31.96 0.395321 32.9065 0.749088 34.109 1.59588C35.2157 2.37529 36.0389 3.36359 36.5773 4.59111C37.0604 5.68947 37.2276 6.84062 37.3405 8.0176C37.4074 8.71502 37.4016 9.40683 37.4109 10.102C37.4201 10.7377 37.4132 11.3722 37.3624 12.0135C37.125 11.5485 37.0108 11.0566 36.8932 10.5658C36.7249 9.85943 36.3952 9.57979 35.7449 9.58428C35.0359 9.58877 34.5863 10.1784 34.773 10.8612C35.0716 11.954 35.3714 13.0478 35.6873 14.2023C34.8122 13.8362 33.9833 13.4948 33.159 13.1422C31.847 12.5806 30.5384 12.0112 29.2276 11.4475C29.0316 11.3632 28.8298 11.2666 28.6246 11.4329C28.4021 11.6125 28.5843 11.7877 28.6315 11.9629C29.0258 13.4207 29.4224 14.8773 29.8167 16.3351C30.0173 17.0763 30.2006 17.8209 30.4208 18.5565C30.5949 19.1394 31.0192 19.4549 31.5115 19.4291C32.1686 19.3932 32.6586 18.7306 32.4926 18.1196C32.194 17.0269 31.9069 15.9319 31.5922 14.7526C32.5837 15.1693 33.5025 15.5478 34.4145 15.9409C35.3057 16.3249 36.1853 16.7315 37.0788 17.1111C37.3106 17.2099 37.4224 17.3144 37.4212 17.585C37.4097 20.8352 37.4132 24.0842 37.4155 27.3344C37.4155 27.577 37.3475 27.7926 37.2264 27.997C36.8321 27.6264 36.4586 27.2367 36.0839 26.8459C34.9483 25.6588 33.8069 24.4773 32.6874 23.2756C31.8343 22.3603 30.9558 21.4675 30.0877 20.5657C29.3913 19.8424 28.6949 19.1203 27.9986 18.397C27.9836 18.2431 27.994 18.1016 28.0585 17.95C28.2027 17.6165 28.2522 17.2515 28.2488 16.8977C28.2372 15.6421 27.6839 14.6471 26.6047 13.9642C25.2282 13.0939 23.711 12.849 22.0842 13.0197C20.3318 13.2039 18.7754 13.8171 17.5026 14.984C16.3405 16.0498 15.5219 17.2829 15.8862 18.9911C16.1122 20.0535 16.684 20.7858 17.6444 21.2743C17.6133 21.335 17.5649 21.3922 17.5522 21.4562C17.4473 21.9976 17.4254 22.5479 17.3666 23.0948C17.2709 23.982 17.0922 24.8614 17.0391 25.7497C16.9849 26.6594 16.8258 27.5556 16.7474 28.462C16.6598 29.4873 16.5226 30.5104 16.4189 31.5358C16.3589 32.1265 16.2967 32.7173 16.2275 33.308C16.1226 34.1952 16.0107 35.0825 15.9024 35.9697H15.9035ZM16.2505 22.704C16.3174 21.9493 15.613 21.4956 14.678 21.7449C13.773 21.9852 12.8668 22.2222 11.9595 22.4513C11.8488 22.4794 11.722 22.6276 11.6124 22.485C11.5144 22.357 11.6217 22.2233 11.6747 22.0975C12.514 20.0715 13.351 18.0455 14.1938 16.0206C14.2837 15.8038 14.3633 15.568 14.2111 15.3861C14.0612 15.2064 13.811 15.2906 13.6035 15.3423C12.3964 15.6444 11.2101 16.0183 9.99722 16.3059C9.17981 16.499 8.35664 16.6821 7.55999 16.9696C7.06309 17.1493 6.65266 17.6434 6.7495 18.1151C6.86364 18.6688 7.51618 19.1248 8.04997 18.9945C8.79244 18.8137 9.52799 18.6104 10.2658 18.4105C10.4641 18.3566 10.7039 18.1758 10.8538 18.2971C11.0406 18.4475 10.7847 18.6441 10.7201 18.8069C10.2324 20.03 9.71707 21.244 9.2121 22.4603C8.86161 23.3059 8.50883 24.1505 8.16526 24.9984C8.10185 25.1545 8.08917 25.3084 8.24827 25.4521C8.39008 25.5824 8.50306 25.5442 8.66793 25.5139C9.20748 25.4162 9.72398 25.2387 10.2509 25.104C11.9595 24.6649 13.6646 24.2156 15.3732 23.7799C15.9877 23.6238 16.3393 23.1476 16.2529 22.7029L16.2505 22.704Z" fill="#005BFF"/>
<path d="M27.9994 18.3984C28.6957 19.1217 29.3932 19.8438 30.0884 20.5671C30.9566 21.4689 31.8351 22.3617 32.6882 23.2771C33.8077 24.4787 34.949 25.6602 36.0846 26.8473C36.4582 27.2381 36.8329 27.6267 37.2272 27.9984C37.4958 28.3432 37.2468 28.7004 37.226 29.0418C37.1568 30.166 36.7015 31.1947 36.208 32.1886C35.7826 33.0466 35.0367 33.6733 34.2896 34.2719C33.3961 34.9873 32.3573 35.4556 31.2413 35.6926C30.545 35.8408 29.8371 35.9936 29.1061 35.9913C24.792 35.9801 20.4767 35.9857 16.1625 35.9846C16.0761 35.9846 15.9908 35.9756 15.9043 35.9711C16.0127 35.0839 16.1245 34.1978 16.2294 33.3094C16.2986 32.7198 16.3608 32.128 16.4208 31.5372C16.5246 30.5119 16.6618 29.4876 16.7494 28.4634C16.8266 27.5571 16.9869 26.6609 17.0411 25.7512C17.0941 24.8628 17.2728 23.9823 17.3685 23.0962C17.4273 22.5493 17.4492 21.999 17.5541 21.4577C17.5668 21.3937 17.6152 21.3364 17.6463 21.2757C18.7231 22.1079 20.0075 22.3 21.3079 22.2517C22.2764 22.2158 23.2367 22.0046 24.1568 21.6318C25.3073 21.1657 26.3092 20.5177 27.1128 19.5968C27.4391 19.2228 27.7054 18.7994 27.9994 18.3984Z" fill="#F91155"/>
<path d="M0.442881 22.9204C0.442881 22.5015 0.486691 22.077 0.432504 21.6637C0.350649 21.0359 0.75301 20.7046 1.2453 20.6417C2.03503 20.5418 2.83284 20.4868 3.52804 21.0562C4.43998 21.8019 4.74435 23.3405 3.96038 24.3636C3.17064 25.3923 1.67764 25.6181 0.636568 24.8589C0.486691 24.7488 0.433657 24.614 0.438269 24.4299C0.450951 23.9267 0.442881 23.4236 0.442881 22.9204Z" fill="#005BFF"/>
<path d="M27.9995 18.3989C27.7055 18.7998 27.4392 19.2232 27.1129 19.5972C26.3093 20.5181 25.3075 21.1661 24.1569 21.6322C23.2369 22.0039 22.2765 22.2151 21.3081 22.2521C20.0076 22.3015 18.7233 22.1095 17.6465 21.2762C16.6861 20.7876 16.1143 20.0554 15.8883 18.993C15.524 17.2848 16.3425 16.0516 17.5046 14.9859C18.7775 13.8201 20.3339 13.2058 22.0863 13.0216C23.7119 12.8509 25.2291 13.0957 26.6068 13.9661C27.6859 14.6489 28.2393 15.644 28.2508 16.8996C28.2543 17.2545 28.2047 17.6183 28.0606 17.9519C27.996 18.1024 27.9845 18.245 28.0006 18.3989H27.9995ZM23.1481 15.1319C21.2562 15.0701 19.7666 15.6518 18.5607 16.8906C18.2321 17.2275 17.9727 17.6329 17.8989 18.1013C17.7848 18.829 18.2506 19.2704 18.8166 19.6039C19.8047 20.1857 20.8896 20.1935 21.9883 20.0206C23.5401 19.7769 24.8302 19.0817 25.7825 17.8519C26.201 17.3106 26.3474 16.2504 25.4896 15.7181C24.716 15.2374 23.8975 15.0813 23.1481 15.1307V15.1319Z" fill="#F8F8F8"/>
<path d="M16.252 22.7039C16.3396 23.1475 15.988 23.6237 15.3723 23.7809C13.6626 24.2167 11.9574 24.667 10.25 25.105C9.72311 25.2398 9.20661 25.4172 8.66705 25.5149C8.50219 25.5441 8.38921 25.5823 8.2474 25.4532C8.08945 25.3083 8.10214 25.1544 8.16439 24.9994C8.50796 24.1515 8.86074 23.307 9.21122 22.4613C9.71619 21.245 10.2315 20.031 10.7192 18.808C10.7838 18.6451 11.0397 18.4486 10.853 18.2981C10.7031 18.1779 10.4644 18.3587 10.265 18.4115C9.52827 18.6103 8.79157 18.8147 8.0491 18.9955C7.51531 19.1258 6.86277 18.6698 6.74863 18.1162C6.65179 17.6445 7.06222 17.1503 7.55912 16.9706C8.35462 16.6831 9.17779 16.5001 9.99635 16.3069C11.2092 16.0194 12.3955 15.6454 13.6026 15.3433C13.8101 15.2916 14.0592 15.2063 14.2102 15.3871C14.3612 15.569 14.2828 15.8049 14.1929 16.0216C13.3501 18.0454 12.5131 20.0725 11.6738 22.0986C11.6219 22.2243 11.5136 22.358 11.6116 22.486C11.7211 22.6286 11.8479 22.4793 11.9586 22.4523C12.8671 22.2243 13.7732 21.9863 14.6771 21.7459C15.6121 21.4977 16.3165 21.9503 16.2497 22.705L16.252 22.7039Z" fill="#F8F8F8"/>
<path d="M23.1473 15.1298C23.8967 15.0804 24.7153 15.2365 25.4889 15.7172C26.3466 16.2495 26.2002 17.3097 25.7817 17.851C24.8306 19.0808 23.5393 19.7748 21.9875 20.0197C20.8888 20.1926 19.8039 20.1847 18.8159 19.603C18.2498 19.2694 17.7841 18.8292 17.8982 18.1003C17.972 17.632 18.2314 17.2266 18.56 16.8897C19.7659 15.6509 21.2543 15.0692 23.1473 15.1309V15.1298Z" fill="#F91155"/>
</g>
<defs>
<clipPath id="clip0_288_225">
<rect width="37" height="36" fill="white" transform="translate(0.421875)"/>
</clipPath>
</defs>
</svg>
