<svg width="39" height="38" viewBox="0 0 39 38" fill="none" xmlns="http://www.w3.org/2000/svg">
<rect width="38.5938" height="38" rx="10" fill="#E7750E"/>
<g clip-path="url(#clip0_288_216)">
<path d="M36.2168 19.0773C36.2168 19.0958 36.2188 19.114 36.2188 19.1326C36.2188 22.9541 34.17 26.2944 31.114 28.1157C29.4936 29.1119 27.5891 29.6875 25.5527 29.6875C19.6715 29.6875 14.8867 24.8934 14.8867 19.0002C14.8867 13.1069 19.6715 8.3125 25.5527 8.3125C31.434 8.3125 36.2188 13.1069 36.2188 19.0002C36.2188 19.026 36.2169 19.0514 36.2168 19.0773ZM3.3884 20.5534V18.8597H4.17529C4.35017 18.8597 4.50175 18.8501 4.62989 18.8306C4.76001 18.813 4.87665 18.7848 4.97965 18.7459C5.08249 18.705 5.17874 18.6514 5.2681 18.5852C5.42352 18.4724 5.54199 18.3322 5.62353 18.1648C5.70523 17.9974 5.746 17.8124 5.746 17.6101C5.746 17.466 5.72408 17.3298 5.6804 17.2013C5.63671 17.0727 5.57295 16.9555 5.48942 16.8494C5.40589 16.7432 5.30672 16.6542 5.19223 16.5821C5.06011 16.4984 4.91052 16.439 4.74346 16.404C4.57839 16.371 4.354 16.3543 4.0703 16.3543H2.96875V20.5534H3.3884ZM3.3884 16.737H3.9975L4.07045 16.731H4.15199C4.4337 16.731 4.65027 16.7632 4.80185 16.8276C4.96693 16.8958 5.09475 16.9978 5.18503 17.134C5.2753 17.2704 5.32052 17.4272 5.32052 17.6043C5.32052 17.7541 5.28941 17.8908 5.22733 18.0145C5.1651 18.138 5.07575 18.2369 4.95926 18.3108C4.86209 18.3731 4.7499 18.4164 4.62268 18.4407C4.49547 18.4652 4.32488 18.4772 4.11122 18.4772H3.3884V16.737ZM7.19485 20.5534V18.813C7.19485 18.5736 7.22106 18.4042 7.27363 18.305C7.35119 18.1513 7.47273 18.0217 7.63796 17.9167C7.75061 17.8524 7.89637 17.8106 8.07508 17.7911V17.3765C7.87108 17.392 7.71367 17.4243 7.60301 17.4729C7.504 17.5157 7.41847 17.5732 7.34659 17.6452C7.28835 17.6996 7.2301 17.7814 7.17171 17.8904V17.4436H6.77827V20.5534H7.19501H7.19485ZM9.69299 17.5999C9.44822 17.7488 9.25388 17.9498 9.11011 18.2028C8.9645 18.4539 8.89155 18.7244 8.89155 19.0146C8.89155 19.3047 8.96481 19.5707 9.11149 19.819C9.25817 20.0672 9.45681 20.2623 9.7074 20.4043C9.958 20.5504 10.2271 20.6233 10.5145 20.6233C10.8019 20.6233 11.0721 20.55 11.3189 20.4028C11.5655 20.2559 11.7618 20.0568 11.9076 19.8057C12.0532 19.5546 12.1261 19.2831 12.1261 18.9911C12.1261 18.699 12.0523 18.4349 11.9047 18.1868C11.7569 17.9385 11.5574 17.7414 11.3059 17.5955C11.0542 17.4494 10.7807 17.3765 10.4856 17.3765C10.1904 17.3765 9.93777 17.4508 9.69284 17.5999H9.69299ZM10.5381 17.7766C10.7441 17.7766 10.9374 17.8309 11.1181 17.94C11.2988 18.049 11.4421 18.196 11.5479 18.381C11.6538 18.566 11.7066 18.7635 11.7066 18.9737C11.7066 19.2053 11.6547 19.4165 11.5508 19.6073C11.4469 19.798 11.3045 19.9488 11.1239 20.0598C10.9412 20.1687 10.7401 20.2233 10.5208 20.2233C10.3015 20.2233 10.0987 20.1698 9.91324 20.0628C9.72763 19.9557 9.58049 19.8087 9.47167 19.6218C9.36484 19.437 9.31135 19.2345 9.31135 19.0146C9.31135 18.7947 9.36331 18.5852 9.46723 18.3984C9.57114 18.2115 9.71537 18.0637 9.89991 17.9545C10.0825 17.8436 10.2875 17.7842 10.5148 17.7766H10.5381ZM13.8812 20.5534V17.8261H14.6505V17.4435H13.8812V17.3822C13.8812 16.952 14.1104 16.7368 14.569 16.7368H14.6448V16.3542H14.569C14.4019 16.3542 14.2485 16.3775 14.1085 16.4243C13.9706 16.4728 13.8526 16.5434 13.7545 16.6359C13.6564 16.7284 13.583 16.84 13.5344 16.9704C13.4858 17.095 13.4616 17.2525 13.4616 17.4433H12.9808V17.8259H13.4616V20.5533H13.8812V20.5534ZM17.9295 19.9256C17.8615 19.986 17.778 20.0415 17.679 20.0921C17.5021 20.1797 17.3099 20.2233 17.1019 20.2233C16.8706 20.2233 16.6599 20.1698 16.4695 20.0628C16.2772 19.9538 16.1266 19.8057 16.0178 19.6189C15.909 19.4301 15.8546 19.2209 15.8546 18.9911C15.8546 18.7613 15.9101 18.5677 16.0207 18.3808C16.1315 18.194 16.283 18.0469 16.4753 17.9399C16.6677 17.8309 16.8784 17.7764 17.1076 17.7764C17.4049 17.7764 17.669 17.8747 17.9003 18.0712C17.9916 18.1492 18.0828 18.2542 18.1742 18.3866H18.6462C18.5472 18.1725 18.4393 18.0051 18.3228 17.8844C17.9907 17.5457 17.5875 17.3764 17.1135 17.3764C16.8104 17.3764 16.5297 17.4493 16.2713 17.5953C16.0129 17.7394 15.8089 17.936 15.6593 18.1852C15.5097 18.4343 15.4349 18.7067 15.4349 19.0028C15.4349 19.2989 15.5097 19.5742 15.6593 19.8233C15.8089 20.0705 16.0129 20.2661 16.2713 20.4101C16.5296 20.5522 16.8144 20.6232 17.125 20.6232C17.568 20.6232 17.9458 20.4761 18.2586 20.1824C18.3345 20.1123 18.3981 20.0407 18.4496 19.9678C18.5009 19.8947 18.5647 19.7863 18.6404 19.6422H18.1742C18.079 19.7687 17.9973 19.8631 17.9294 19.9255L17.9295 19.9256ZM18.2643 20.1885C18.34 20.1184 18.4045 20.0458 18.4563 19.9725C18.5083 19.8987 18.5727 19.7889 18.6478 19.646L18.6539 19.6342H18.1703L18.1679 19.6374C18.0735 19.7628 17.9915 19.8577 17.9242 19.9194C17.8569 19.9789 17.7732 20.0346 17.6754 20.0847C17.5007 20.1713 17.3077 20.2151 17.1019 20.2151C16.8731 20.2151 16.6616 20.1615 16.4735 20.0557C16.2833 19.9479 16.1323 19.7996 16.0249 19.6148C15.9173 19.4282 15.8627 19.2184 15.8627 18.9909C15.8627 18.7635 15.9182 18.5697 16.0276 18.3847C16.1371 18.1999 16.2891 18.0526 16.4793 17.9468C16.6695 17.8391 16.8809 17.7844 17.1077 17.7844C17.4017 17.7844 17.6665 17.883 17.8952 18.0774C17.9856 18.1545 18.0773 18.2601 18.1677 18.3912L18.1702 18.3946H18.659L18.6536 18.3832C18.5546 18.1691 18.4451 17.9995 18.3287 17.8788C17.9965 17.54 17.5878 17.3682 17.1135 17.3682C16.8102 17.3682 16.5256 17.4424 16.2675 17.5883C16.0089 17.7323 15.802 17.9319 15.6524 18.181C15.5028 18.4302 15.427 18.7066 15.427 19.0027C15.427 19.2988 15.5028 19.5781 15.6524 19.8273C15.802 20.0745 16.0089 20.273 16.2675 20.4172C16.5258 20.5592 16.8144 20.6313 17.1252 20.6313C17.5681 20.6313 17.9513 20.4822 18.2643 20.1883V20.1885ZM18.3172 17.89C18.4304 18.0071 18.537 18.1716 18.6338 18.3786H18.1786C18.0882 18.2479 17.9964 18.1426 17.9056 18.0651C17.674 17.8683 17.4055 17.7684 17.1077 17.7684C16.8781 17.7684 16.664 17.8237 16.4715 17.9328C16.2787 18.0401 16.1248 18.1894 16.0138 18.3768C15.9029 18.5641 15.8466 18.7708 15.8466 18.9911C15.8466 19.2113 15.9019 19.4337 16.0109 19.6229C16.1199 19.8101 16.2729 19.9604 16.4657 20.0697C16.6562 20.1769 16.8703 20.2311 17.102 20.2311C17.3103 20.2311 17.5056 20.1868 17.6826 20.099C17.7818 20.0484 17.8667 19.9919 17.9351 19.9313C18.0025 19.8693 18.0845 19.7748 18.1785 19.6502H18.6274C18.5552 19.7867 18.4933 19.8919 18.4433 19.9631C18.3923 20.0355 18.3284 20.1071 18.2534 20.1766C17.9437 20.4677 17.564 20.6152 17.1253 20.6152C16.8173 20.6152 16.5313 20.5438 16.2755 20.4031C16.0195 20.2603 15.8146 20.0639 15.6664 19.819C15.5183 19.5723 15.4432 19.2978 15.4432 19.0027C15.4432 18.7075 15.5183 18.4359 15.6664 18.1891C15.8144 17.9424 16.0194 17.7449 16.2755 17.6021C16.5313 17.4574 16.8133 17.384 17.1137 17.384C17.5835 17.384 17.9884 17.5541 18.3172 17.8897V17.89ZM20.4335 17.5997C20.1886 17.7486 19.9944 17.9496 19.8506 18.2026C19.705 18.4537 19.6321 18.7243 19.6321 19.0144C19.6321 19.3046 19.7055 19.5706 19.8522 19.8189C19.9988 20.067 20.1975 20.2622 20.4481 20.4042C20.6988 20.5503 20.9678 20.6232 21.2553 20.6232C21.5429 20.6232 21.8129 20.5498 22.0597 20.4026C22.3063 20.2557 22.5025 20.0567 22.6484 19.8055C22.794 19.5544 22.867 19.2829 22.867 18.9909C22.867 18.6989 22.7931 18.4348 22.6455 18.1866C22.4978 17.9383 22.2982 17.7413 22.0465 17.5953C21.795 17.4493 21.5214 17.3764 21.2262 17.3764C20.931 17.3764 20.6784 17.4507 20.4337 17.5997H20.4335ZM21.2785 17.7764C21.4845 17.7764 21.6778 17.8308 21.8585 17.9399C22.0392 18.0488 22.1825 18.1959 22.2884 18.3808C22.3943 18.5658 22.4472 18.7633 22.4472 18.9735C22.4472 19.2052 22.3952 19.4163 22.2913 19.6071C22.1874 19.7979 22.045 19.9487 21.8643 20.0596C21.6817 20.1686 21.4805 20.2231 21.2612 20.2231C21.0418 20.2231 20.8391 20.1697 20.6536 20.0626C20.468 19.9556 20.3209 19.8085 20.212 19.6217C20.1052 19.4369 20.0517 19.2343 20.0517 19.0144C20.0517 18.7945 20.1037 18.5851 20.2077 18.3982C20.3117 18.2114 20.4557 18.0636 20.6404 17.9543C20.823 17.8435 21.028 17.7841 21.2553 17.7764H21.2786H21.2785ZM22.0637 20.4097C22.3103 20.2628 22.5092 20.0609 22.6552 19.8096C22.8009 19.5585 22.8748 19.2831 22.8748 18.9909C22.8748 18.6987 22.8 18.4308 22.6522 18.1824C22.5045 17.9341 22.302 17.7342 22.0504 17.5883C21.7988 17.4422 21.5216 17.3682 21.2261 17.3682C20.9306 17.3682 20.674 17.4438 20.4294 17.5928C20.1846 17.7416 19.9877 17.9455 19.8437 18.1987C19.698 18.4498 19.6241 18.7243 19.6241 19.0144C19.6241 19.3046 19.6986 19.5747 19.8453 19.8229C19.9919 20.0712 20.1935 20.2691 20.4441 20.4112C20.6947 20.5572 20.9677 20.6313 21.2553 20.6313C21.543 20.6313 21.8172 20.5567 22.0638 20.4097H22.0637ZM22.0424 17.6022C22.2916 17.7468 22.4922 17.9447 22.6385 18.1907C22.7847 18.4366 22.8589 18.7058 22.8589 18.9909C22.8589 19.276 22.7857 19.553 22.6414 19.8016C22.4968 20.0506 22.2997 20.2504 22.0556 20.3959C21.8114 20.5413 21.5421 20.6152 21.2553 20.6152C20.9686 20.6152 20.7004 20.5418 20.4521 20.3973C20.2039 20.2565 20.0044 20.0606 19.8591 19.8148C19.7139 19.5689 19.6402 19.2996 19.6402 19.0144C19.6402 18.7293 19.7133 18.4554 19.8577 18.2067C20.0002 17.9559 20.1953 17.754 20.4377 17.6066C20.6798 17.4591 20.9451 17.3844 21.2261 17.3844C21.507 17.3844 21.7933 17.4577 22.0424 17.6024V17.6022ZM21.8684 20.0665C22.0496 19.9551 22.1943 19.8019 22.2982 19.6109C22.4023 19.4198 22.4551 19.2052 22.4551 18.9734C22.4551 18.7625 22.4013 18.5617 22.2953 18.3766C22.1892 18.1913 22.0436 18.0421 21.8626 17.9328C21.6816 17.8236 21.4851 17.7682 21.2785 17.7682H21.255C21.0273 17.7759 20.8191 17.8363 20.6363 17.9474C20.4511 18.057 20.3046 18.2073 20.2007 18.3943C20.0966 18.5816 20.0438 18.7903 20.0438 19.0144C20.0438 19.2386 20.098 19.4406 20.2051 19.6258C20.3141 19.8131 20.4637 19.9623 20.6496 20.0697C20.8354 20.1769 21.0411 20.2313 21.2612 20.2313C21.4813 20.2313 21.6856 20.176 21.8686 20.0667L21.8684 20.0665ZM21.2785 17.7844C21.482 17.7844 21.6758 17.8389 21.8543 17.9468C22.033 18.0546 22.1767 18.202 22.2815 18.3847C22.3862 18.5675 22.4392 18.7657 22.4392 18.9735C22.4392 19.2027 22.3871 19.4146 22.2844 19.6033C22.1817 19.7918 22.039 19.943 21.8603 20.0529C21.6799 20.1606 21.4784 20.2151 21.2613 20.2151C21.0443 20.2151 20.8411 20.1615 20.6577 20.0557C20.4743 19.9499 20.3267 19.8024 20.2192 19.6178C20.1135 19.435 20.06 19.232 20.06 19.0146C20.06 18.7972 20.1121 18.5871 20.215 18.4023C20.3175 18.2178 20.462 18.0695 20.6447 17.9614C20.8253 17.8518 21.0308 17.7922 21.2557 17.7845H21.2788L21.2785 17.7844ZM23.8553 20.1474C23.937 20.2973 24.0514 20.4142 24.199 20.4979C24.3468 20.5815 24.5119 20.6233 24.6944 20.6233C24.9781 20.6233 25.2132 20.5299 25.3998 20.3431C25.5863 20.1543 25.6795 19.9187 25.6795 19.6366C25.6795 19.4828 25.6513 19.3513 25.5949 19.2423C25.5385 19.1314 25.4473 19.035 25.321 18.9531C25.1909 18.8715 25.0218 18.7965 24.814 18.7285C24.676 18.6837 24.5871 18.6525 24.5473 18.6349C24.5074 18.6175 24.4584 18.5873 24.4001 18.5445C24.3088 18.457 24.2631 18.3489 24.2631 18.2203C24.2631 18.0918 24.3054 17.9907 24.3899 17.9049C24.4743 17.8193 24.5798 17.7766 24.7061 17.7766C24.846 17.7766 24.958 17.8159 25.0426 17.8947C25.1272 17.9736 25.1723 18.0822 25.1781 18.2203H25.6036C25.588 17.9692 25.4997 17.7659 25.3384 17.6101C25.179 17.4544 24.978 17.3765 24.7352 17.3765C24.4924 17.3765 24.2766 17.4602 24.1057 17.6276C23.9308 17.7971 23.8435 18.0024 23.8435 18.2438C23.8435 18.5534 23.9736 18.787 24.234 18.9445C24.3233 18.997 24.4653 19.0527 24.6595 19.111C24.852 19.1674 24.9928 19.2337 25.0822 19.3094C25.2007 19.4107 25.26 19.5422 25.26 19.7037C25.26 19.8535 25.2085 19.9777 25.1056 20.0759C25.0025 20.1744 24.8734 20.2233 24.718 20.2233C24.5548 20.2233 24.4211 20.1694 24.3174 20.0614C24.2135 19.9534 24.1577 19.8117 24.1497 19.6366H23.733C23.733 19.8273 23.7737 19.9976 23.8554 20.1476L23.8553 20.1474ZM25.4054 20.3487C25.5926 20.1592 25.6874 19.9197 25.6874 19.6364C25.6874 19.482 25.6588 19.3481 25.6021 19.2386C25.5452 19.1267 25.4522 19.0284 25.3253 18.9462C25.1951 18.8646 25.0239 18.7887 24.8164 18.7207C24.6765 18.6752 24.5896 18.6446 24.5505 18.6274C24.5111 18.6102 24.4622 18.5799 24.4057 18.5384C24.3164 18.4529 24.2712 18.3459 24.2712 18.2202C24.2712 18.0944 24.3131 17.9943 24.3957 17.9104C24.4781 17.8269 24.5825 17.7844 24.7062 17.7844C24.8434 17.7844 24.9548 17.8234 25.0373 17.9004C25.1199 17.9775 25.1645 18.085 25.1702 18.2203L25.1705 18.228H25.6122L25.6117 18.2194C25.5959 17.9673 25.506 17.7603 25.3441 17.6038C25.184 17.4474 24.979 17.3679 24.7352 17.3679C24.4913 17.3679 24.2718 17.4532 24.1002 17.6212C23.9245 17.7914 23.8353 18.0007 23.8353 18.2432C23.8353 18.5544 23.9681 18.7925 24.2299 18.9508C24.3197 19.0036 24.4633 19.0599 24.657 19.118C24.8474 19.1738 24.9885 19.2401 25.0767 19.3149C25.1927 19.4141 25.2515 19.5447 25.2515 19.703C25.2515 19.8499 25.2005 19.9733 25.0997 20.0695C24.9987 20.1659 24.8701 20.2147 24.7176 20.2147C24.5572 20.2147 24.4243 20.1611 24.3226 20.0551C24.2205 19.9491 24.165 19.8079 24.1572 19.6355L24.1569 19.6278H23.7245V19.6358C23.7245 19.827 23.7661 20.0002 23.8479 20.1506C23.9299 20.3012 24.0465 20.4202 24.1948 20.5042C24.3431 20.5882 24.5111 20.6307 24.6941 20.6307C24.9786 20.6307 25.2178 20.5355 25.4051 20.3481L25.4054 20.3487ZM24.1419 19.6444C24.1511 19.8175 24.2081 19.9595 24.3114 20.0669C24.4162 20.176 24.5531 20.2313 24.7179 20.2313C24.8826 20.2313 25.0069 20.181 25.111 20.0817C25.2151 19.9824 25.2679 19.8551 25.2679 19.7037C25.2679 19.5403 25.2073 19.4057 25.0874 19.3033C24.9974 19.227 24.8543 19.1597 24.6619 19.1031C24.4694 19.0455 24.3269 18.9897 24.2383 18.9375C23.9817 18.7823 23.8516 18.5489 23.8516 18.2437C23.8516 18.0057 23.9391 17.8004 24.1115 17.6333C24.2801 17.4682 24.49 17.3845 24.7353 17.3845C24.9807 17.3845 25.176 17.4624 25.3331 17.6159C25.49 17.7676 25.5783 17.9683 25.5952 18.2123H25.1859C25.1787 18.0763 25.1325 17.9675 25.0483 17.8889C24.9628 17.8092 24.8477 17.7686 24.7064 17.7686C24.5784 17.7686 24.47 17.8126 24.3845 17.8993C24.2988 17.9861 24.2554 18.0943 24.2554 18.2203C24.2554 18.3463 24.3023 18.4616 24.3957 18.5509C24.4539 18.5937 24.5039 18.6246 24.5444 18.6423C24.5837 18.6598 24.6713 18.6906 24.8118 18.7362C25.018 18.8037 25.1879 18.879 25.317 18.96C25.4414 19.0404 25.5326 19.1367 25.5881 19.2461C25.6436 19.3535 25.6718 19.4848 25.6718 19.6366C25.6718 19.9153 25.5785 20.1512 25.3945 20.3374C25.2105 20.5219 24.975 20.6153 24.6949 20.6153C24.5148 20.6153 24.3494 20.5735 24.2035 20.4909C24.058 20.4084 23.9434 20.2915 23.8628 20.1435C23.7834 19.9976 23.7425 19.8297 23.7414 19.6444H24.1423H24.1419ZM27.1285 20.5533V18.7751C27.1285 18.5998 27.1391 18.4659 27.1605 18.3735C27.1818 18.281 27.2217 18.1938 27.2799 18.1122C27.346 18.0129 27.4413 17.9311 27.5656 17.867C27.6879 17.8066 27.8151 17.7766 27.9473 17.7766C28.0697 17.7766 28.1857 17.8019 28.2955 17.8524C28.4051 17.9031 28.5009 17.9741 28.5824 18.0656C28.6641 18.1551 28.7223 18.2583 28.7573 18.3752C28.7844 18.4705 28.798 18.6039 28.798 18.7752V20.5534H29.2235V18.8188C29.2235 18.6243 29.2318 18.4822 29.2484 18.3926C29.2648 18.3031 29.2983 18.2155 29.3489 18.1297C29.5043 17.8943 29.7413 17.7766 30.0599 17.7766C30.6155 17.7766 30.8932 18.1239 30.8932 18.8188V20.5534H31.3131V18.7838C31.3131 18.4821 31.2654 18.2271 31.1702 18.0187C31.075 17.8104 30.9333 17.6533 30.7447 17.5471C30.5562 17.4411 30.326 17.388 30.0541 17.388C29.8033 17.388 29.5966 17.4386 29.4334 17.5397C29.2701 17.6389 29.1313 17.8016 29.0166 18.0274C28.9253 17.8054 28.7999 17.6435 28.6408 17.5411C28.4814 17.4389 28.2785 17.3878 28.0317 17.3878C27.8062 17.3878 27.6232 17.4257 27.4824 17.5016C27.3415 17.5776 27.2157 17.7051 27.105 17.8842V17.4403H26.7116V20.5531H27.1283L27.1285 20.5533ZM31.3212 18.7837C31.3212 18.4822 31.2729 18.2238 31.1776 18.0153C31.0822 17.8066 30.938 17.6468 30.7489 17.54C30.5599 17.4337 30.3262 17.38 30.0542 17.38C29.8035 17.38 29.5932 17.4314 29.4294 17.533C29.2695 17.6301 29.131 17.79 29.0175 18.0084C28.9265 17.7941 28.8013 17.6347 28.6452 17.5344C28.4854 17.4319 28.2789 17.3798 28.0319 17.3798C27.8062 17.3798 27.6202 17.4184 27.4787 17.4946C27.3435 17.5674 27.2206 17.6892 27.1132 17.8565V17.4325H26.7036V20.5614H27.1363V18.7751C27.1363 18.6008 27.147 18.4663 27.1682 18.3753C27.1892 18.2844 27.2289 18.1974 27.2864 18.1167C27.3513 18.0192 27.4464 17.9375 27.569 17.8742C27.6896 17.8146 27.8168 17.7845 27.9471 17.7845C28.0677 17.7845 28.1837 17.8098 28.292 17.8596C28.4002 17.9096 28.4958 17.9806 28.5764 18.0709C28.6567 18.159 28.715 18.2622 28.7495 18.3772C28.7763 18.4716 28.7899 18.6055 28.7899 18.7751V20.5614H29.2313V18.8188C29.2313 18.6257 29.2396 18.4829 29.256 18.394C29.2721 18.3059 29.3057 18.2184 29.3553 18.1341C29.5085 17.9021 29.7454 17.7845 30.0598 17.7845C30.6074 17.7845 30.8851 18.1325 30.8851 18.8188V20.5614H31.3209V18.7838L31.3212 18.7837ZM30.9015 18.8186C30.9015 18.1217 30.6184 17.7682 30.0601 17.7682C29.74 17.7682 29.4985 17.8883 29.3422 18.1255C29.2913 18.2117 29.2571 18.301 29.2407 18.391C29.2241 18.4807 29.2157 18.6246 29.2157 18.8186V20.5453H28.8063V18.7751C28.8063 18.604 28.7925 18.4686 28.7653 18.3727C28.73 18.2551 28.6705 18.1499 28.5887 18.0601C28.5068 17.9683 28.4094 17.8958 28.299 17.8449C28.1887 17.7941 28.0703 17.7682 27.9474 17.7682C27.8147 17.7682 27.685 17.799 27.5619 17.8596C27.4369 17.9242 27.3398 18.0076 27.2735 18.1073C27.2149 18.1896 27.1743 18.2785 27.1529 18.3714C27.1314 18.4636 27.1205 18.5992 27.1205 18.7747V20.5449H26.7199V17.4483H27.0972V17.9125L27.1121 17.8883C27.2215 17.7113 27.3474 17.5836 27.4864 17.5087C27.6254 17.4337 27.809 17.3958 28.0319 17.3958C28.2759 17.3958 28.4794 17.4469 28.6367 17.5479C28.7938 17.6488 28.9193 17.8112 29.0094 18.0303L29.016 18.0465L29.024 18.031C29.1374 17.8074 29.2767 17.6444 29.4378 17.5464C29.5992 17.4464 29.8066 17.3958 30.0542 17.3958C30.3234 17.3958 30.5544 17.4489 30.7409 17.5538C30.9271 17.6588 31.069 17.8162 31.163 18.0217C31.2573 18.228 31.3051 18.4843 31.3051 18.7834V20.5449H30.9014V18.8183L30.9015 18.8186ZM33.237 17.5997C32.9923 17.7486 32.7979 17.9496 32.6542 18.2026C32.5086 18.4537 32.4356 18.7243 32.4356 19.0144C32.4356 19.3046 32.509 19.5706 32.6557 19.8189C32.8024 20.067 33.001 20.2622 33.2516 20.4042C33.5024 20.5503 33.7713 20.6232 34.0589 20.6232C34.3464 20.6232 34.6165 20.5498 34.8632 20.4026C35.11 20.2557 35.3062 20.0567 35.4519 19.8055C35.5976 19.5544 35.6705 19.2829 35.6705 18.9909C35.6705 18.6989 35.5966 18.4348 35.449 18.1866C35.3013 17.9383 35.1017 17.7413 34.8502 17.5953C34.5985 17.4493 34.3251 17.3764 34.0299 17.3764C33.7347 17.3764 33.482 17.4507 33.2372 17.5997H33.237ZM34.0822 17.7764C34.288 17.7764 34.4813 17.8308 34.662 17.9399C34.8427 18.0488 34.986 18.1959 35.0919 18.3808C35.1978 18.5658 35.2507 18.7633 35.2507 18.9735C35.2507 19.2052 35.1987 19.4163 35.0948 19.6071C34.9909 19.7979 34.8487 19.9487 34.668 20.0596C34.4853 20.1686 34.2842 20.2231 34.0647 20.2231C33.8452 20.2231 33.6426 20.1697 33.4571 20.0626C33.2715 19.9556 33.1244 19.8085 33.0156 19.6217C32.9087 19.4369 32.8554 19.2343 32.8554 19.0144C32.8554 18.7945 32.9072 18.5851 33.0113 18.3982C33.1152 18.2114 33.2594 18.0636 33.4441 17.9543C33.6267 17.8435 33.8316 17.7841 34.0589 17.7764H34.0823H34.0822ZM34.8672 20.4097C35.114 20.2628 35.3131 20.0609 35.4587 19.8096C35.6045 19.5585 35.6783 19.2831 35.6783 18.9909C35.6783 18.6987 35.6034 18.431 35.4556 18.1824C35.3079 17.9341 35.1054 17.7342 34.8539 17.5883C34.6022 17.4422 34.325 17.3682 34.0296 17.3682C33.7343 17.3682 33.4774 17.4438 33.2328 17.5928C32.988 17.7418 32.7909 17.9455 32.6471 18.1987C32.5014 18.4498 32.4275 18.7243 32.4275 19.0144C32.4275 19.3046 32.502 19.5747 32.6486 19.8229C32.7953 20.0712 32.9969 20.2691 33.2475 20.4112C33.4981 20.5572 33.771 20.6313 34.0587 20.6313C34.3464 20.6313 34.6205 20.5567 34.8671 20.4097H34.8672ZM34.8461 17.6022C35.0953 17.7468 35.2958 17.9447 35.442 18.1907C35.5882 18.4366 35.6624 18.7059 35.6624 18.9909C35.6624 19.2759 35.5893 19.5529 35.4447 19.8016C35.3005 20.0504 35.1034 20.2504 34.8589 20.3959C34.6148 20.5413 34.3456 20.6152 34.0587 20.6152C33.7718 20.6152 33.5036 20.5418 33.2554 20.3973C33.0071 20.2565 32.8077 20.0606 32.6624 19.8148C32.5171 19.5689 32.4434 19.2996 32.4434 19.0144C32.4434 18.7293 32.5165 18.4554 32.6609 18.2067C32.8033 17.956 32.9986 17.7541 33.2409 17.6066C33.483 17.4591 33.7484 17.3844 34.0294 17.3844C34.3105 17.3844 34.5967 17.4577 34.8458 17.6024L34.8461 17.6022ZM34.6723 20.0665C34.8533 19.9552 34.9978 19.8019 35.1019 19.6109C35.2059 19.4196 35.2587 19.2052 35.2587 18.9734C35.2587 18.7625 35.2049 18.5617 35.0988 18.3766C34.9929 18.1915 34.8473 18.0421 34.6661 17.9328C34.4851 17.8236 34.2886 17.7682 34.0822 17.7682H34.0586C33.831 17.7759 33.6228 17.8363 33.44 17.9474C33.2547 18.057 33.1081 18.2073 33.0042 18.3943C32.9002 18.5815 32.8474 18.7901 32.8474 19.0144C32.8474 19.2387 32.9017 19.4408 33.0087 19.6258C33.1176 19.8131 33.2672 19.9623 33.4532 20.0697C33.6388 20.1769 33.8445 20.2313 34.0647 20.2313C34.285 20.2313 34.4891 20.176 34.6723 20.0667V20.0665ZM34.0823 17.7844C34.2857 17.7844 34.4795 17.8389 34.658 17.9468C34.8367 18.0546 34.9805 18.202 35.085 18.3847C35.1897 18.5675 35.2427 18.7657 35.2427 18.9735C35.2427 19.2027 35.1906 19.4146 35.0879 19.6033C34.9851 19.7918 34.8424 19.9432 34.664 20.0529C34.4834 20.1606 34.2819 20.2151 34.0647 20.2151C33.8475 20.2151 33.6444 20.1615 33.4613 20.0557C33.2778 19.9499 33.1302 19.8024 33.0226 19.6178C32.917 19.4353 32.8635 19.2323 32.8635 19.0146C32.8635 18.7969 32.9156 18.587 33.0183 18.4023C33.1207 18.218 33.2654 18.0695 33.4483 17.9614C33.6288 17.8518 33.8343 17.7922 34.059 17.7845H34.0823V17.7844Z" fill="white"/>
</g>
<defs>
<clipPath id="clip0_288_216">
<path d="M2.96875 19C2.96875 13.0975 7.75371 8.3125 13.6562 8.3125H25.5312C31.4338 8.3125 36.2188 13.0975 36.2188 19C36.2188 24.9025 31.4338 29.6875 25.5312 29.6875H13.6563C7.75371 29.6875 2.96875 24.9025 2.96875 19Z" fill="white"/>
</clipPath>
</defs>
</svg>
