<svg width="25" height="25" viewBox="0 0 25 25" fill="none" xmlns="http://www.w3.org/2000/svg">
<path d="M13.0032 20.8416L19.0525 24.8358C19.8258 25.3464 20.7859 24.587 20.5564 23.6463L18.8086 16.481C18.7594 16.2815 18.7652 16.0715 18.8254 15.8752C18.8856 15.6789 18.9978 15.5044 19.149 15.3716L24.5737 10.6661C25.2864 10.0478 24.9185 8.81502 24.0028 8.75308L16.9185 8.27392C16.7276 8.25972 16.5446 8.18931 16.3907 8.0709C16.2368 7.95249 16.1184 7.79096 16.0491 7.6051L13.407 0.670972C13.3352 0.473703 13.2075 0.30387 13.0408 0.184027C12.8742 0.0641833 12.6765 0 12.4741 0C12.2716 0 12.074 0.0641833 11.9073 0.184027C11.7407 0.30387 11.613 0.473703 11.5412 0.670972L8.89904 7.6051C8.82981 7.79096 8.71135 7.95249 8.55744 8.0709C8.40353 8.18931 8.22052 8.25972 8.0297 8.27392L0.945395 8.75308C0.0296212 8.81502 -0.338275 10.0478 0.374508 10.6661L5.79921 15.3716C5.95039 15.5044 6.06253 15.6789 6.12273 15.8752C6.18294 16.0715 6.18877 16.2815 6.13955 16.481L4.51867 23.1261C4.24332 24.2549 5.39539 25.1661 6.32331 24.5534L11.945 20.8416C12.1031 20.7367 12.2867 20.681 12.4741 20.681C12.6615 20.681 12.845 20.7367 13.0032 20.8416Z" fill="url(#paint0_linear_234_140)"/>
<defs>
<linearGradient id="paint0_linear_234_140" x1="5.4886" y1="5.5" x2="19.9972" y2="24.9712" gradientUnits="userSpaceOnUse">
<stop stop-color="#ED9108"/>
<stop offset="1" stop-color="#DB1117"/>
</linearGradient>
</defs>
</svg>
