<svg width="38" height="36" viewBox="0 0 38 36" fill="none" xmlns="http://www.w3.org/2000/svg">
<g clip-path="url(#clip0_288_220)">
<path d="M37.2793 7.37291C37.212 6.60988 37.0492 5.86451 36.7936 5.13747C36.4936 4.28544 36.0442 3.51848 35.4435 2.83528C34.6034 1.8792 33.5863 1.1587 32.3802 0.702586C31.577 0.398943 30.7375 0.240577 29.8812 0.148961C28.3286 -0.0166028 26.772 0.00172051 25.2155 0.00172051C20.3069 0.00172051 15.3977 -0.00547792 10.4892 0.00957335C9.2945 0.0134998 8.09714 0.06258 6.9186 0.298819C6.00174 0.482706 5.12053 0.75821 4.32341 1.24378C2.8045 2.16976 1.67978 3.41574 1.08379 5.08185C0.814719 5.83441 0.631751 6.60595 0.582645 7.40301C0.551702 7.89643 0.538921 8.39116 0.516723 8.88524C0.514705 8.9245 0.50596 8.96311 0.469635 9.00434C0.466272 8.95526 0.462236 8.90618 0.460218 8.8571C0.447437 8.55346 0.434656 8.24981 0.421875 7.94617V27.9886C0.438692 27.7268 0.456182 27.4644 0.472999 27.2026C0.483761 27.2 0.494524 27.1974 0.505287 27.1941C0.519413 27.2609 0.542957 27.3276 0.545648 27.395C0.561119 27.7844 0.559774 28.1744 0.586681 28.5625C0.650586 29.4943 0.838936 30.402 1.22034 31.2619C2.07935 33.1989 3.53369 34.5457 5.54499 35.3192C6.33606 35.6235 7.16548 35.7851 8.0144 35.8401C8.49536 35.8715 8.97767 35.8865 9.45931 35.9101C9.50371 35.9121 9.5481 35.9193 9.5925 35.9245C9.5925 35.9376 9.5925 35.9507 9.59183 35.9638C9.40751 35.9638 9.22253 35.9592 9.03821 35.9651C8.87004 35.9703 8.70187 35.9873 8.53303 35.9991H29.4453C29.195 35.9854 28.9455 35.9703 28.6952 35.9585C28.6051 35.9539 28.5136 35.9579 28.4167 35.9258C28.4719 35.9121 28.5271 35.8905 28.5829 35.8865C28.7107 35.8774 28.8398 35.8715 28.9677 35.8741C29.565 35.8852 30.1522 35.8335 30.7429 35.7288C31.8541 35.5325 32.8961 35.1746 33.8392 34.5738C34.9357 33.8756 35.7812 32.9502 36.3745 31.8103C36.7384 31.1107 36.9893 30.3739 37.134 29.6036C37.2867 28.7869 37.3916 27.9637 37.3936 27.1333C37.4091 21.239 37.4219 15.3442 37.4212 9.44999C37.4212 8.75763 37.3398 8.06462 37.2786 7.37291H37.2793Z" fill="url(#paint0_linear_288_220)"/>
<path d="M10.3058 21.2696C10.3401 21.1558 10.3751 21.0419 10.4087 20.928C10.8325 19.5106 11.257 18.0925 11.6801 16.6751C11.9606 15.7354 12.2391 14.7956 12.5196 13.8559C12.677 13.3291 12.8371 12.803 12.9945 12.2762C13.0699 12.0236 13.0685 12.0177 13.3436 12.0144C13.8212 12.0092 14.2988 12.017 14.7764 12.0092C14.9029 12.0072 14.9466 12.0622 14.9776 12.1656C15.2258 12.9993 15.4794 13.831 15.7276 14.6641C16.2018 16.255 16.6734 17.8458 17.1456 19.4373C17.3151 20.0073 17.4833 20.5773 17.6528 21.1473C17.6649 21.1885 17.6838 21.2278 17.7154 21.3102C17.745 21.2271 17.7638 21.1846 17.7759 21.1394C18.121 19.8862 18.4634 18.6324 18.8098 17.3792C19.2464 15.7995 19.687 14.2204 20.1249 12.6407C20.1727 12.4673 20.209 12.2906 20.2655 12.1198C20.281 12.0746 20.3523 12.0164 20.398 12.0157C21.035 12.0092 21.6727 12.0125 22.3098 12.0112C22.4201 12.0112 22.4261 12.0701 22.4033 12.1492C22.295 12.5183 22.1853 12.8874 22.0777 13.2565C21.8005 14.2067 21.5254 15.1575 21.2463 16.1077C20.8447 17.4741 20.4377 18.8392 20.0381 20.2069C19.7031 21.3534 19.3762 22.5019 19.0459 23.6497C19.0305 23.7027 19.0096 23.7538 18.9968 23.8074C18.9618 23.9547 18.8636 24.005 18.715 24.0037C18.0779 23.9992 17.4402 23.9985 16.8025 24.0005C16.6734 24.0005 16.6007 23.9671 16.5604 23.831C16.177 22.5261 15.7855 21.2232 15.3973 19.9196C14.9803 18.5205 14.5632 17.1207 14.1468 15.721C14.1085 15.592 14.0728 15.4625 14.0365 15.3329C14.019 15.3349 14.0008 15.3375 13.9834 15.3394C13.8912 15.6483 13.7984 15.9565 13.7062 16.2654C13.4546 17.109 13.2024 17.9518 12.9528 18.7953C12.6461 19.8313 12.3447 20.8685 12.0346 21.9031C11.8382 22.5588 11.6283 23.2113 11.4292 23.8663C11.3976 23.9717 11.3444 24.0037 11.2321 24.0031C10.5641 23.9985 9.89548 23.9985 9.22752 24.0044C9.09634 24.0057 9.04118 23.9658 9.00553 23.8388C8.83602 23.2374 8.65036 22.6406 8.47681 22.0405C8.03486 20.5138 7.59762 18.9858 7.15499 17.4591C6.66663 15.7733 6.17423 14.0889 5.68385 12.4038C5.65559 12.3076 5.63339 12.2101 5.60312 12.1146C5.57554 12.0262 5.60918 11.9954 5.69932 11.9961C6.29531 12.002 6.89063 12.0112 7.48662 12.0085C7.64672 12.0079 7.72744 12.0576 7.76982 12.2127C8.00122 13.0661 8.24204 13.9168 8.47815 14.7688C8.87974 16.2183 9.282 17.6672 9.68023 19.118C9.8679 19.8025 10.0475 20.4889 10.2312 21.1741C10.2399 21.2062 10.254 21.2376 10.2655 21.269C10.2782 21.269 10.2917 21.269 10.3045 21.269L10.3058 21.2696Z" fill="white"/>
<path d="M30.5619 17.7833C30.5982 17.8089 30.6513 17.854 30.7105 17.8894C31.5554 18.3893 32.064 19.1039 32.2066 20.0646C32.4427 21.6594 31.6294 22.8929 30.4051 23.5486C29.7869 23.8798 29.1122 23.9956 28.4167 23.9982C26.7619 24.0041 25.1071 23.9995 23.4523 24.0048C23.307 24.0048 23.2848 23.9478 23.2855 23.8261C23.2875 21.1313 23.2855 18.4371 23.2855 15.7423C23.2855 14.5774 23.2848 13.4126 23.2842 12.2478C23.2842 12.2131 23.2855 12.1771 23.2781 12.143C23.2579 12.0475 23.3043 12.0161 23.3945 12.0161C23.5943 12.0161 23.7941 12.0141 23.9938 12.0135C25.2787 12.0128 26.5635 12.0194 27.8476 12.0082C28.5929 12.0017 29.3275 12.0665 29.9733 12.4447C30.9325 13.0062 31.6193 13.7705 31.731 14.919C31.8036 15.6611 31.733 16.3731 31.283 16.9974C31.0825 17.2755 30.8168 17.5092 30.5625 17.7827L30.5619 17.7833ZM27.0572 22.1305C27.0572 22.1305 27.0572 22.1332 27.0572 22.1338C27.5294 22.1338 28.0023 22.1201 28.4745 22.1371C29.2871 22.1652 30.0654 21.5475 30.1899 20.7674C30.2968 20.0993 30.05 19.4442 29.5091 19.0745C29.1943 18.8592 28.8385 18.7826 28.4618 18.782C27.4601 18.78 26.4585 18.7826 25.4576 18.7767C25.3103 18.7761 25.3042 18.8467 25.3042 18.9534C25.3062 19.9527 25.3089 20.952 25.3042 21.9506C25.3035 22.088 25.3439 22.1351 25.4865 22.1332C26.0105 22.1273 26.5339 22.1305 27.0579 22.1305H27.0572ZM25.2968 15.4308C25.3002 15.4308 25.3042 15.4308 25.3076 15.4308C25.3076 15.9006 25.3123 16.3705 25.3049 16.8404C25.3029 16.9765 25.3533 17.0105 25.4838 17.0098C26.3731 17.004 27.2624 17.0053 28.151 16.9987C28.2882 16.9974 28.4288 16.981 28.562 16.9483C29.3497 16.7553 29.8677 15.9739 29.7311 15.1939C29.5905 14.3863 28.9703 13.8667 28.1248 13.8609C27.2355 13.8543 26.3462 13.8589 25.4569 13.8537C25.3378 13.853 25.2928 13.8844 25.2941 14.0048C25.2995 14.4799 25.2961 14.9544 25.2961 15.4295L25.2968 15.4308Z" fill="white"/>
</g>
<defs>
<linearGradient id="paint0_linear_288_220" x1="2.86033" y1="33.6419" x2="34.1185" y2="1.51152" gradientUnits="userSpaceOnUse">
<stop stop-color="#A621AB"/>
<stop offset="1" stop-color="#75159E"/>
</linearGradient>
<clipPath id="clip0_288_220">
<rect width="37" height="36" fill="white" transform="translate(0.421875)"/>
</clipPath>
</defs>
</svg>
