<svg width="429" height="115" viewBox="0 0 429 115" fill="none" xmlns="http://www.w3.org/2000/svg">
<path fill-rule="evenodd" clip-rule="evenodd" d="M64.0413 2.06347C58.0856 9.66507 64.4667 27.8244 69.3589 33.1033C70.2097 33.948 71.6987 35.0037 72.9749 34.7926C74.0384 34.5814 74.4638 33.7368 74.4638 32.4699C74.8892 28.0356 74.6765 25.2906 75.9528 20.6452C77.8671 14.5216 79.9941 7.55352 76.8036 2.9081C74.4638 -0.470391 66.3811 -1.10386 64.0413 2.06347ZM25.542 18.7448C28.9452 26.1352 37.4534 33.948 45.3234 37.3264C51.7045 40.0715 51.9172 37.1153 50.641 32.0476C48.7267 24.2348 45.5361 10.5097 37.4534 8.39814C30.4341 6.49774 22.7768 12.8324 25.542 18.7448ZM87.8642 38.1711C88.2896 40.7049 93.1818 39.2268 96.7977 36.0595C100.626 33.3145 103.604 32.2587 105.731 30.1472C112.325 24.446 104.455 18.1113 98.4993 20.8563C95.0961 22.5456 86.8006 31.6252 87.8642 38.1711ZM41.0693 100.04C29.5833 107.852 44.2599 115.665 48.0886 107.43C51.0664 101.307 49.3648 94.3384 41.0693 100.04ZM30.8596 86.5257C15.5449 102.573 -3.38575 79.7687 22.3514 74.2787C36.3899 71.3225 43.1964 73.6452 30.8596 86.5257ZM7.88755 38.8045C20.0117 37.1153 32.7739 43.0276 38.3042 54.0077C41.0693 59.2866 35.539 59.9201 29.796 59.2866C23.2022 58.6531 15.5449 57.5974 9.37648 55.4858C-1.04601 51.8962 -4.44927 41.9719 7.88755 38.8045ZM98.0739 60.7647C110.411 54.43 122.748 71.3225 100.414 91.5934C86.1625 104.685 57.4475 79.1352 67.2319 62.8763C71.2733 55.9081 80.6322 56.7527 87.0133 60.5535C95.5215 65.6213 89.3531 65.199 98.0739 60.7647ZM97.2231 50.8404C117.643 33.9479 148.697 58.8643 123.811 85.4699C117.005 92.6492 108.922 100.884 99.5629 109.33C91.4801 116.721 91.6928 116.299 81.9085 111.02C73.613 106.585 66.5938 101.94 60.6381 97.7169C41.7074 84.4141 38.5169 63.932 45.9615 51.2627C54.8951 36.2707 76.5909 40.9161 87.6515 50.8404C94.0326 56.3304 90.6293 56.3304 97.2231 50.8404Z" fill="url(#paint0_linear_323_170)"/>
<g clip-path="url(#clip0_323_170)">
<path fill-rule="evenodd" clip-rule="evenodd" d="M283.786 37.7023C283.688 48.5314 294.567 44.624 294.567 35.7486C294.038 28.2966 283.883 27.2361 283.786 37.7023Z" fill="white"/>
<path d="M152.209 81.0328C154.814 82.1353 157.141 82.9447 159.202 83.461C161.264 83.9634 163.409 84.2285 165.651 84.2285C168.214 84.2285 170.555 83.8657 172.7 83.14C174.845 82.4144 176.67 81.4236 178.216 80.1397C179.748 78.8698 180.932 77.3208 181.782 75.5346C182.617 73.7204 183.035 71.7388 183.035 69.5758C183.035 66.5615 182.255 64.0217 180.667 61.9703C179.093 59.9189 176.461 58.0071 172.783 56.2627L168.688 54.295C167.824 53.8764 167.1 53.5135 166.515 53.2205C165.916 52.9135 165.428 52.6483 165.052 52.3832C164.662 52.132 164.342 51.8948 164.105 51.6575C163.868 51.4203 163.632 51.1412 163.423 50.7923C163.13 50.4574 162.907 50.0248 162.768 49.4805C162.643 48.9502 162.573 48.4339 162.573 47.9315C162.573 46.3128 163.144 45.0289 164.286 44.066C165.428 43.1031 166.961 42.6286 168.855 42.6286C170.75 42.6286 172.602 43.0473 174.343 43.8706C176.098 44.7079 177.951 46.0057 179.901 47.792V38.8887C176.252 37.6048 172.769 36.9629 169.454 36.9629C166.989 36.9629 164.704 37.3118 162.601 37.9956C160.497 38.6654 158.687 39.6143 157.141 40.8005C155.608 41.9727 154.41 43.3962 153.547 45.0568C152.683 46.7035 152.251 48.4897 152.251 50.4016C152.251 52.453 152.781 54.3788 153.839 56.1929C154.898 58.0071 156.374 59.5421 158.283 60.7701C158.979 61.2446 159.717 61.6772 160.497 62.1098C161.264 62.5424 162.169 62.975 163.144 63.4495L166.654 65.166C168.813 66.2266 170.373 67.3011 171.293 68.3477C172.226 69.4083 172.7 70.6503 172.7 72.0877C172.7 73.9297 171.989 75.409 170.555 76.5533C169.12 77.6976 167.281 78.2697 165.038 78.2697C162.796 78.2697 160.706 77.7953 158.645 76.8463C156.583 75.8974 154.438 74.3205 152.182 72.1714V81.0189L152.209 81.0328ZM221.87 83.5168H232.582C232.54 82.8051 232.499 82.0236 232.443 81.1724C232.401 80.3211 232.373 79.4699 232.331 78.6465C232.29 77.8232 232.248 77.0277 232.234 76.3021C232.206 75.5485 232.192 74.9205 232.192 74.4182V37.6048H221.94C222.079 39.0841 222.177 40.6331 222.233 42.2518C222.288 43.8706 222.33 45.3499 222.33 46.7035V74.4042C222.33 75.2555 222.316 76.3439 222.274 77.6557C222.233 78.9814 222.149 80.2095 222.079 81.3538C222.038 81.7864 221.996 82.1353 221.996 82.4283C221.996 82.6935 221.954 83.0424 221.856 83.5168M201.673 55.6766C203.442 55.6766 204.765 56.6255 205.601 58.5234C206.451 60.4073 206.868 63.3518 206.868 67.329C206.868 75.102 205.141 78.9814 201.673 78.9814C198.204 78.9814 196.421 75.102 196.421 67.329C196.421 63.3518 196.825 60.3934 197.675 58.5234C198.525 56.6255 199.862 55.6766 201.673 55.6766ZM186.225 67.329C186.225 69.9386 186.573 72.2691 187.284 74.3763C187.994 76.4835 189.039 78.2558 190.376 79.7211C191.713 81.1724 193.343 82.3167 195.251 83.0842C197.16 83.8797 199.305 84.2704 201.673 84.2704C204.041 84.2704 206.2 83.8797 208.066 83.0842C209.961 82.3027 211.549 81.1724 212.872 79.7211C214.195 78.2558 215.212 76.4695 215.923 74.3763C216.633 72.283 216.981 69.9386 216.981 67.329C216.981 64.7194 216.633 62.4029 215.923 60.2957C215.212 58.1885 214.195 56.4162 212.872 54.9509C211.549 53.4856 209.961 52.3692 208.066 51.5877C206.2 50.7923 204.055 50.4016 201.673 50.4016C199.291 50.4016 197.146 50.7923 195.251 51.5877C193.343 52.3692 191.727 53.4856 190.376 54.9509C189.039 56.4162 188.008 58.2024 187.284 60.2957C186.573 62.4029 186.225 64.7473 186.225 67.329Z" fill="white"/>
<path d="M418.288 76.6376C417.425 77.3633 416.603 77.8796 415.823 78.1727C415.057 78.4658 414.207 78.6053 413.288 78.6053C411.853 78.6053 410.697 78.1727 409.791 77.3075C408.886 76.4423 408.426 75.3119 408.426 73.9583C408.426 71.3766 410.098 69.2415 413.427 67.5948L415.892 66.3807C416.185 66.1714 416.519 65.99 416.854 65.8086C417.202 65.6411 417.675 65.362 418.288 64.9852V76.6376ZM418.093 60.6452C416.436 60.9941 415.043 61.343 413.845 61.6779C412.661 62.0128 411.324 62.4873 409.847 63.0734C406.17 64.5107 403.495 66.1714 401.824 67.9995C400.152 69.8555 399.316 72.1023 399.316 74.7816C399.316 77.5866 400.264 79.8613 402.172 81.6056C404.08 83.3361 406.588 84.2152 409.708 84.2152C411.477 84.2152 413.037 83.9501 414.388 83.4477C415.725 82.9314 417.049 82.0801 418.344 80.8939C418.344 81.494 418.372 81.9685 418.414 82.3034C418.455 82.6383 418.581 83.043 418.804 83.5035H429C428.777 82.7918 428.638 82.2197 428.582 81.8429C428.512 81.4661 428.443 81.0474 428.345 80.573C428.164 79.6798 428.053 78.7728 427.997 77.8657C427.927 76.9586 427.9 75.898 427.9 74.656V60.3801C427.9 57.1983 426.479 54.7004 423.665 52.9002C420.851 51.1139 416.993 50.2068 412.118 50.2068C410.376 50.2068 408.788 50.2766 407.312 50.4162C405.835 50.5836 404.15 50.8209 402.256 51.1558V58.4124C404.066 57.31 405.668 56.5145 407.047 56.054C408.426 55.5935 409.819 55.3702 411.212 55.3702C413.107 55.3702 414.708 55.7609 415.976 56.5703C417.244 57.3797 417.926 58.4682 418.01 59.8219L418.079 60.6452H418.093ZM395.361 51.3512C393.982 50.9744 392.714 50.6953 391.572 50.5557C390.43 50.4162 389.246 50.3324 388.02 50.3324C385.29 50.3324 382.796 50.779 380.484 51.6861C378.186 52.5652 376.222 53.8072 374.55 55.3981C372.878 57.0029 371.583 58.9008 370.65 61.1057C369.73 63.3106 369.257 65.7109 369.257 68.2926C369.257 70.6649 369.633 72.8279 370.399 74.7677C371.165 76.6935 372.21 78.3541 373.575 79.7357C374.94 81.1172 376.598 82.1778 378.52 82.9453C380.442 83.7128 382.573 84.0896 384.913 84.0896C387.254 84.0896 389.538 83.7407 391.544 83.043C393.536 82.3452 395.695 81.187 398.035 79.5682L395.04 75.1724C393.828 76.3585 392.644 77.2098 391.502 77.7261C390.36 78.2285 389.106 78.4937 387.713 78.4937C386.487 78.4937 385.387 78.2285 384.356 77.6982C383.339 77.1679 382.476 76.4144 381.724 75.4375C380.999 74.4467 380.428 73.2884 380.01 71.9209C379.606 70.5672 379.397 69.088 379.397 67.4692C379.397 65.8504 379.62 64.1898 380.052 62.7245C380.484 61.2592 381.097 60.0033 381.863 58.9706C382.643 57.924 383.562 57.1146 384.621 56.5145C385.68 55.9144 386.864 55.6214 388.159 55.6214C389.454 55.6214 390.68 55.8447 391.795 56.2912C392.923 56.7378 394.121 57.4914 395.374 58.5519V51.3651L395.361 51.3512ZM334.405 83.5035H345.298C345.229 82.6104 345.145 81.8289 345.103 81.1591C345.075 80.4613 345.006 79.7915 344.992 79.1216C344.95 78.4518 344.908 77.6982 344.908 76.8888V59.4451C345.744 58.3426 346.51 57.5751 347.248 57.1146C348.001 56.668 348.864 56.4447 349.909 56.4447C352.764 56.4447 354.199 57.9658 354.199 60.9662V73.9583C354.199 74.2932 354.199 74.7537 354.143 75.3259C354.102 75.898 354.046 76.54 353.976 77.2935C353.921 78.0471 353.865 78.8286 353.823 79.6519C353.781 80.4892 353.739 81.3126 353.684 82.108L353.628 83.5035H364.465C364.382 82.5406 364.312 81.7871 364.27 81.2707C364.228 80.7683 364.173 80.1683 364.131 79.4984C364.089 78.5634 364.061 77.6285 364.033 76.6935C364.033 75.7724 364.019 74.8095 364.019 73.8327V60.8406C364.019 58.8171 363.783 57.1844 363.323 55.9424C362.877 54.7004 362.153 53.6677 361.164 52.8164C360.217 52.0908 359.06 51.5186 357.709 51.0721C356.372 50.6395 354.979 50.4022 353.558 50.4022C350.633 50.4022 347.722 51.6582 344.866 54.1701V51.1697H334.531C334.712 52.9002 334.823 54.5189 334.893 55.9703C334.949 57.4355 334.991 58.9287 334.991 60.4638V73.7211C334.991 75.1166 334.949 76.6097 334.851 78.2146C334.768 79.8054 334.614 81.5638 334.405 83.5314M317.913 76.6516C317.049 77.3773 316.214 77.8936 315.448 78.1867C314.668 78.4797 313.818 78.6193 312.912 78.6193C311.478 78.6193 310.308 78.1867 309.402 77.3214C308.497 76.4562 308.051 75.3259 308.051 73.9722C308.051 71.3906 309.723 69.2554 313.052 67.6088L315.503 66.3947C315.81 66.1853 316.13 66.0039 316.492 65.8225C316.84 65.6551 317.314 65.376 317.913 64.9992V76.6516ZM317.718 60.6592C316.06 61.008 314.668 61.3569 313.456 61.6918C312.286 62.0267 310.948 62.5012 309.472 63.0873C305.794 64.5247 303.12 66.1853 301.462 68.0135C299.791 69.8695 298.955 72.1162 298.955 74.7956C298.955 77.6005 299.902 79.8752 301.811 81.6196C303.719 83.35 306.24 84.2292 309.346 84.2292C311.116 84.2292 312.69 83.964 314.013 83.4617C315.35 82.9453 316.673 82.0941 317.969 80.9079C317.969 81.5079 317.997 81.9824 318.025 82.3173C318.066 82.6523 318.206 83.057 318.428 83.5175H328.611C328.402 82.8058 328.263 82.2336 328.207 81.8568C328.137 81.48 328.068 81.0614 327.97 80.5869C327.789 79.6938 327.678 78.7867 327.608 77.8796C327.552 76.9726 327.51 75.912 327.51 74.67V60.394C327.51 57.2123 326.117 54.7143 323.304 52.9141C320.49 51.1279 316.632 50.2208 311.742 50.2208C310.015 50.2208 308.399 50.2906 306.951 50.4301C305.474 50.5976 303.789 50.8348 301.88 51.1697V58.4264C303.719 57.3239 305.307 56.5285 306.686 56.068C308.065 55.6074 309.458 55.3842 310.837 55.3842C312.745 55.3842 314.347 55.7749 315.601 56.5843C316.882 57.3937 317.551 58.4822 317.648 59.8358L317.718 60.6592ZM282.839 83.5314H293.69C293.551 81.8708 293.453 80.3357 293.397 78.9402C293.328 77.5447 293.3 76.0376 293.3 74.4188V51.1697H282.908C282.992 52.0908 283.062 52.956 283.145 53.7514C283.201 54.5329 283.257 55.5656 283.299 56.8355C283.34 57.5193 283.354 58.1193 283.354 58.6217V74.4746C283.354 75.7166 283.312 77.154 283.243 78.8007C283.145 80.4613 283.02 82.0382 282.839 83.5175M254.353 77.7261V62.3058H257.975C263.951 62.3058 266.931 64.8875 266.931 70.0788C266.931 72.5767 266.277 74.4746 264.94 75.7724C263.63 77.0703 261.652 77.7122 259.075 77.7122H254.339L254.353 77.7261ZM254.27 56.5843V43.2712L258.031 43.1596C260.635 43.0758 262.586 43.5922 263.881 44.7225C265.176 45.8389 265.831 47.5135 265.831 49.7882C265.831 54.3236 263.073 56.5843 257.585 56.5843H254.27ZM242.973 83.5175H262.585C264.995 83.5175 267.126 83.2663 268.937 82.7499C270.316 82.3732 271.598 81.801 272.74 81.0335C273.882 80.266 274.857 79.3589 275.651 78.2983C276.459 77.2238 277.086 76.0515 277.546 74.7258C277.991 73.4001 278.228 72.0325 278.228 70.5812C278.228 67.3157 277.267 64.6922 275.331 62.7245C273.409 60.7429 270.609 59.5288 266.931 59.0543C270.038 58.538 272.461 57.3797 274.175 55.5795C275.86 53.7933 276.724 51.4907 276.724 48.6718C276.724 46.132 275.958 43.8992 274.425 42.0292C272.893 40.1313 270.832 38.8754 268.227 38.2334C267.405 38.0241 266.528 37.8567 265.594 37.759C264.661 37.6613 263.644 37.6055 262.516 37.6055H243.043C243.14 38.4846 243.196 39.3219 243.238 40.0476C243.279 40.8012 243.321 41.5129 243.377 42.2106C243.405 42.9223 243.433 43.634 243.433 44.3457V46.7041L243.572 74.4746L243.377 77.5308L243.238 79.4984L243.098 82.429L242.959 83.5175H242.973Z" fill="white"/>
<path d="M163.673 96.007C164.829 96.621 165.734 97.4862 166.375 98.6026C167.03 99.719 167.35 101.003 167.35 102.426C167.35 103.85 167.016 105.161 166.375 106.278C165.72 107.394 164.829 108.259 163.673 108.873C162.531 109.488 161.235 109.795 159.8 109.795C158.575 109.795 157.46 109.557 156.471 109.069C155.482 108.58 154.674 107.869 154.034 106.934V115H152V95.1976H153.964V98.0584C154.577 97.1094 155.385 96.3698 156.402 95.8535C157.405 95.3371 158.547 95.0859 159.814 95.0859C161.235 95.0859 162.517 95.3929 163.673 96.007ZM162.545 107.366C163.408 106.906 164.091 106.236 164.578 105.371C165.066 104.506 165.317 103.529 165.317 102.426C165.317 101.324 165.066 100.347 164.578 99.4957C164.091 98.6445 163.408 97.9746 162.545 97.5002C161.681 97.0257 160.72 96.7885 159.661 96.7885C158.603 96.7885 157.614 97.0257 156.764 97.5002C155.914 97.9746 155.232 98.6445 154.744 99.4957C154.257 100.347 154.006 101.324 154.006 102.426C154.006 103.529 154.257 104.506 154.744 105.371C155.232 106.236 155.9 106.906 156.764 107.366C157.614 107.841 158.589 108.064 159.661 108.064C160.734 108.064 161.681 107.827 162.545 107.366Z" fill="white"/>
<path d="M185.459 95.8392C186.406 95.3508 187.59 95.0996 188.983 95.0996V96.9975L188.495 96.9696C186.894 96.9696 185.654 97.444 184.748 98.379C183.843 99.314 183.397 100.626 183.397 102.314V109.683H181.35V95.2112H183.314V98.0441C183.801 97.0673 184.512 96.3416 185.459 95.8392Z" fill="white"/>
<path d="M204.583 108.859C203.413 108.231 202.494 107.352 201.812 106.236C201.143 105.119 200.809 103.849 200.809 102.44C200.809 101.03 201.143 99.7606 201.812 98.6442C202.48 97.5278 203.413 96.6486 204.583 96.0346C205.754 95.4066 207.077 95.0996 208.539 95.0996C210.002 95.0996 211.311 95.4066 212.481 96.0346C213.651 96.6626 214.571 97.5278 215.239 98.6442C215.908 99.7606 216.228 101.03 216.228 102.44C216.228 103.849 215.894 105.119 215.239 106.236C214.571 107.352 213.651 108.231 212.481 108.859C211.311 109.487 209.988 109.808 208.539 109.808C207.091 109.808 205.767 109.487 204.583 108.859ZM211.437 107.38C212.286 106.92 212.955 106.25 213.443 105.384C213.93 104.519 214.167 103.542 214.167 102.44C214.167 101.337 213.93 100.361 213.443 99.4954C212.955 98.6302 212.3 97.9743 211.437 97.4999C210.587 97.0394 209.612 96.8021 208.539 96.8021C207.467 96.8021 206.492 97.0394 205.642 97.4999C204.792 97.9604 204.11 98.6302 203.622 99.4954C203.135 100.361 202.884 101.337 202.884 102.44C202.884 103.542 203.135 104.519 203.622 105.384C204.11 106.25 204.778 106.92 205.642 107.38C206.492 107.854 207.467 108.078 208.539 108.078C209.612 108.078 210.587 107.841 211.437 107.38Z" fill="white"/>
<path d="M233.223 91.4577C232.777 91.9182 232.54 92.5881 232.54 93.4952V95.1977H237.207V96.8444H232.596V109.655H230.548V96.8444H227.832V95.1977H230.548V93.4114C230.548 92.0857 230.952 91.053 231.746 90.2715C232.54 89.504 233.668 89.1133 235.131 89.1133C235.702 89.1133 236.259 89.197 236.803 89.3505C237.346 89.504 237.792 89.7273 238.154 90.0204L237.457 91.4856C236.858 91.0112 236.106 90.7739 235.201 90.7739C234.295 90.7739 233.655 90.9972 233.195 91.4577" fill="white"/>
<path d="M262.726 103.04H250.036C250.147 104.547 250.76 105.762 251.847 106.683C252.947 107.604 254.326 108.078 255.998 108.078C256.945 108.078 257.808 107.925 258.589 107.59C259.383 107.269 260.065 106.794 260.636 106.166L261.792 107.436C261.124 108.204 260.274 108.79 259.271 109.194C258.268 109.599 257.154 109.795 255.942 109.795C254.382 109.795 253.003 109.474 251.805 108.846C250.607 108.218 249.66 107.338 248.991 106.222C248.323 105.106 247.988 103.836 247.988 102.426C247.988 101.017 248.309 99.7469 248.949 98.6305C249.59 97.5141 250.482 96.6349 251.596 96.0209C252.724 95.393 253.978 95.0859 255.385 95.0859C256.792 95.0859 258.045 95.393 259.16 96.0209C260.274 96.6489 261.152 97.5141 261.778 98.6166C262.419 99.733 262.726 100.989 262.726 102.426L262.698 103.026L262.726 103.04ZM251.721 98.1002C250.732 98.9933 250.175 100.152 250.036 101.575H260.789C260.65 100.152 260.093 98.9933 259.104 98.1002C258.115 97.2071 256.875 96.7605 255.399 96.7605C253.922 96.7605 252.71 97.2071 251.721 98.1002Z" fill="white"/>
<path d="M277.267 109.292C276.139 108.958 275.262 108.525 274.635 108.009L275.554 106.474C276.195 106.948 276.989 107.339 277.95 107.646C278.911 107.953 279.914 108.106 280.945 108.106C282.324 108.106 283.355 107.897 284.009 107.478C284.678 107.074 284.998 106.487 284.998 105.734C284.998 105.204 284.817 104.785 284.455 104.478C284.093 104.171 283.633 103.948 283.076 103.794C282.519 103.641 281.781 103.487 280.861 103.334C279.635 103.11 278.646 102.887 277.894 102.664C277.142 102.441 276.501 102.05 275.972 101.492C275.443 100.947 275.178 100.18 275.178 99.2029C275.178 97.9889 275.707 96.9981 276.766 96.2305C277.825 95.463 279.287 95.0723 281.182 95.0723C282.157 95.0723 283.146 95.1979 284.121 95.4491C285.096 95.7002 285.904 96.0212 286.544 96.4259L285.653 97.9889C284.399 97.1655 282.909 96.7469 281.182 96.7469C279.872 96.7469 278.897 96.9701 278.229 97.4028C277.56 97.8493 277.24 98.4215 277.24 99.1332C277.24 99.6914 277.421 100.124 277.797 100.459C278.173 100.794 278.632 101.031 279.19 101.185C279.747 101.338 280.513 101.506 281.502 101.659C282.714 101.882 283.689 102.092 284.413 102.315C285.138 102.538 285.764 102.915 286.294 103.445C286.809 103.976 287.074 104.715 287.074 105.65C287.074 106.92 286.517 107.925 285.416 108.664C284.316 109.404 282.783 109.781 280.819 109.781C279.594 109.781 278.41 109.613 277.295 109.278" fill="white"/>
<path d="M301.17 109.292C300.041 108.958 299.164 108.525 298.537 108.009L299.456 106.474C300.097 106.948 300.891 107.339 301.852 107.646C302.813 107.953 303.816 108.106 304.847 108.106C306.226 108.106 307.257 107.897 307.912 107.478C308.58 107.074 308.901 106.487 308.901 105.734C308.901 105.204 308.72 104.785 308.357 104.478C307.995 104.171 307.536 103.948 306.978 103.794C306.421 103.641 305.683 103.487 304.764 103.334C303.538 103.11 302.549 102.887 301.797 102.664C301.044 102.441 300.404 102.05 299.874 101.492C299.345 100.947 299.08 100.18 299.08 99.2029C299.08 97.9889 299.61 96.9981 300.668 96.2305C301.727 95.463 303.19 95.0723 305.084 95.0723C306.059 95.0723 307.048 95.1979 308.023 95.4491C308.998 95.7002 309.806 96.0212 310.447 96.4259L309.555 97.9889C308.302 97.1655 306.811 96.7469 305.084 96.7469C303.775 96.7469 302.8 96.9701 302.131 97.4028C301.462 97.8493 301.142 98.4215 301.142 99.1332C301.142 99.6914 301.323 100.124 301.699 100.459C302.075 100.794 302.535 101.031 303.092 101.185C303.649 101.338 304.415 101.506 305.404 101.659C306.616 101.882 307.591 102.092 308.316 102.315C309.04 102.538 309.667 102.915 310.196 103.445C310.711 103.976 310.976 104.715 310.976 105.65C310.976 106.92 310.419 107.925 309.318 108.664C308.218 109.404 306.686 109.781 304.722 109.781C303.496 109.781 302.312 109.613 301.198 109.278" fill="white"/>
<path d="M324.502 91.6243C324.21 91.3452 324.07 91.0242 324.07 90.6335C324.07 90.2428 324.21 89.9497 324.502 89.6706C324.795 89.3915 325.143 89.252 325.561 89.252C325.979 89.252 326.341 89.3775 326.633 89.6566C326.926 89.9218 327.065 90.2428 327.065 90.6056C327.065 91.0103 326.926 91.3452 326.633 91.6243C326.341 91.9034 325.993 92.043 325.561 92.043C325.129 92.043 324.781 91.9034 324.502 91.6243ZM324.53 95.1968H326.578V109.668H324.53V95.1968Z" fill="white"/>
<path d="M344.337 108.859C343.167 108.231 342.248 107.352 341.565 106.236C340.897 105.119 340.562 103.849 340.562 102.44C340.562 101.03 340.897 99.7606 341.565 98.6442C342.234 97.5278 343.167 96.6486 344.337 96.0346C345.507 95.4066 346.831 95.0996 348.293 95.0996C349.756 95.0996 351.065 95.4066 352.235 96.0346C353.405 96.6626 354.325 97.5278 354.993 98.6442C355.662 99.7606 355.982 101.03 355.982 102.44C355.982 103.849 355.648 105.119 354.993 106.236C354.325 107.352 353.405 108.231 352.235 108.859C351.065 109.487 349.742 109.808 348.293 109.808C346.845 109.808 345.521 109.487 344.337 108.859ZM351.191 107.38C352.04 106.92 352.709 106.25 353.196 105.384C353.684 104.519 353.921 103.542 353.921 102.44C353.921 101.337 353.684 100.361 353.196 99.4954C352.709 98.6302 352.054 97.9743 351.191 97.4999C350.341 97.0394 349.366 96.8021 348.293 96.8021C347.221 96.8021 346.246 97.0394 345.396 97.4999C344.546 97.9604 343.864 98.6302 343.376 99.4954C342.889 100.361 342.638 101.337 342.638 102.44C342.638 103.542 342.889 104.519 343.376 105.384C343.864 106.25 344.532 106.92 345.396 107.38C346.246 107.854 347.221 108.078 348.293 108.078C349.366 108.078 350.341 107.841 351.191 107.38Z" fill="white"/>
<path d="M382.225 96.6765C383.353 97.7371 383.91 99.2722 383.91 101.282V109.669H381.863V101.477C381.863 99.9699 381.472 98.8256 380.679 98.0441C379.885 97.2487 378.77 96.8579 377.308 96.8579C375.678 96.8579 374.382 97.3185 373.435 98.2534C372.488 99.1745 372.014 100.458 372.014 102.091V109.683H369.967V95.2112H371.931V97.8767C372.488 96.9975 373.268 96.3137 374.257 95.8253C375.246 95.3368 376.388 95.0996 377.698 95.0996C379.606 95.0996 381.11 95.6299 382.239 96.6765" fill="white"/>
<path d="M409.136 96.5093C410.194 97.4583 410.724 98.8538 410.724 100.71V109.683H408.76V107.422C408.3 108.176 407.617 108.762 406.726 109.181C405.834 109.599 404.776 109.808 403.536 109.808C401.851 109.808 400.499 109.418 399.497 108.65C398.494 107.883 397.992 106.864 397.992 105.594C397.992 104.324 398.452 103.375 399.385 102.622C400.318 101.868 401.795 101.491 403.843 101.491H408.662V100.612C408.662 99.3701 408.3 98.4212 407.562 97.7653C406.837 97.1094 405.765 96.7885 404.358 96.7885C403.397 96.7885 402.477 96.942 401.586 97.235C400.708 97.542 399.942 97.9607 399.302 98.491L398.382 97.0257C399.148 96.3977 400.068 95.9232 401.154 95.5883C402.227 95.2534 403.369 95.0859 404.553 95.0859C406.531 95.0859 408.049 95.5604 409.108 96.4954M406.796 107.492C407.617 106.99 408.23 106.264 408.634 105.301V102.929H403.87C401.28 102.929 399.984 103.794 399.984 105.51C399.984 106.348 400.318 107.017 400.987 107.506C401.656 107.994 402.603 108.232 403.815 108.232C405.027 108.232 405.96 107.98 406.782 107.478" fill="white"/>
<path d="M428.136 89.2656H426.088V109.668H428.136V89.2656Z" fill="white"/>
</g>
<defs>
<linearGradient id="paint0_linear_323_170" x1="125.495" y1="107.689" x2="10.2502" y2="12.9002" gradientUnits="userSpaceOnUse">
<stop stop-color="white"/>
<stop offset="1" stop-color="white"/>
</linearGradient>
<clipPath id="clip0_323_170">
<rect width="277" height="85" fill="white" transform="translate(152 30)"/>
</clipPath>
</defs>
</svg>
