<svg width="402" height="57" viewBox="0 0 402 57" fill="none" xmlns="http://www.w3.org/2000/svg">
<path fill-rule="evenodd" clip-rule="evenodd" d="M30.7996 1.19989C27.9996 4.79989 30.9996 13.3999 33.2996 15.8999C33.6996 16.2999 34.3996 16.7999 34.9996 16.6999C35.4996 16.5999 35.6996 16.1999 35.6996 15.5999C35.8996 13.4999 35.7996 12.1999 36.3996 9.99989C37.2996 7.09989 38.2996 3.79989 36.7996 1.59989C35.6996 -0.000113606 31.8996 -0.300114 30.7996 1.19989ZM12.6996 9.09989C14.2996 12.5999 18.2996 16.2999 21.9996 17.8999C24.9996 19.1999 25.0996 17.7999 24.4996 15.3999C23.5996 11.6999 22.0996 5.19989 18.2996 4.19989C14.9996 3.29989 11.3996 6.29989 12.6996 9.09989ZM41.9996 18.2999C42.1996 19.4999 44.4996 18.7999 46.1996 17.2999C47.9996 15.9999 49.3996 15.4999 50.3996 14.4999C53.4996 11.7999 49.7996 8.79989 46.9996 10.0999C45.3996 10.8999 41.4996 15.1999 41.9996 18.2999ZM19.9996 47.5999C14.5996 51.2999 21.4996 54.9999 23.2996 51.0999C24.6996 48.1999 23.8996 44.8999 19.9996 47.5999ZM15.1996 41.1999C7.99964 48.7999 -0.900361 37.9999 11.1996 35.3999C17.7996 33.9999 20.9996 35.0999 15.1996 41.1999ZM4.39964 18.5999C10.0996 17.7999 16.0996 20.5999 18.6996 25.7999C19.9996 28.2999 17.3996 28.5999 14.6996 28.2999C11.5996 27.9999 7.99964 27.4999 5.09964 26.4999C0.199639 24.7999 -1.40036 20.0999 4.39964 18.5999ZM46.7996 28.9999C52.5996 25.9999 58.3996 33.9999 47.8996 43.5999C41.1996 49.7999 27.6996 37.6999 32.2996 29.9999C34.1996 26.6999 38.5996 27.0999 41.5996 28.8999C45.5996 31.2999 42.6996 31.0999 46.7996 28.9999ZM46.3996 24.2999C55.9996 16.2999 70.5996 28.0999 58.8996 40.6999C55.6996 44.0999 51.8996 47.9999 47.4996 51.9999C43.6996 55.4999 43.7996 55.2999 39.1996 52.7999C35.2996 50.6999 31.9996 48.4999 29.1996 46.4999C20.2996 40.1999 18.7996 30.4999 22.2996 24.4999C26.4996 17.3999 36.6996 19.5999 41.8996 24.2999C44.8996 26.8999 43.2996 26.8999 46.3996 24.2999Z" fill="black"/>
<path fill-rule="evenodd" clip-rule="evenodd" d="M31.1082 0.97723C28.3082 4.57723 31.3082 13.1772 33.6082 15.6772C34.0082 16.0772 34.7082 16.5772 35.3082 16.4772C35.8082 16.3772 36.0082 15.9772 36.0082 15.3772C36.2082 13.2772 36.1082 11.9772 36.7082 9.77723C37.6082 6.87723 38.6082 3.57723 37.1082 1.37723C36.0082 -0.22277 32.2082 -0.52277 31.1082 0.97723ZM13.0082 8.87723C14.6082 12.3772 18.6082 16.0772 22.3082 17.6772C25.3082 18.9772 25.4082 17.5772 24.8082 15.1772C23.9082 11.4772 22.4082 4.97723 18.6082 3.97723C15.3082 3.07723 11.7082 6.07723 13.0082 8.87723ZM42.3082 18.0772C42.5082 19.2772 44.8082 18.5772 46.5082 17.0772C48.3082 15.7772 49.7082 15.2772 50.7082 14.2772C53.8082 11.5772 50.1082 8.57723 47.3082 9.87723C45.7082 10.6772 41.8082 14.9772 42.3082 18.0772ZM20.3082 47.3772C14.9082 51.0772 21.8082 54.7772 23.6082 50.8772C25.0082 47.9772 24.2082 44.6772 20.3082 47.3772ZM15.5082 40.9772C8.30823 48.5772 -0.591767 37.7772 11.5082 35.1772C18.1082 33.7772 21.3082 34.8772 15.5082 40.9772ZM4.70823 18.3772C10.4082 17.5772 16.4082 20.3772 19.0082 25.5772C20.3082 28.0772 17.7082 28.3772 15.0082 28.0772C11.9082 27.7772 8.30823 27.2772 5.40823 26.2772C0.508233 24.5772 -1.09177 19.8772 4.70823 18.3772ZM47.1082 28.7772C52.9082 25.7772 58.7082 33.7772 48.2082 43.3772C41.5082 49.5772 28.0082 37.4772 32.6082 29.7772C34.5082 26.4772 38.9082 26.8772 41.9082 28.6772C45.9082 31.0772 43.0082 30.8772 47.1082 28.7772ZM46.7082 24.0772C56.3082 16.0772 70.9082 27.8772 59.2082 40.4772C56.0082 43.8772 52.2082 47.7772 47.8082 51.7772C44.0082 55.2772 44.1082 55.0772 39.5082 52.5772C35.6082 50.4772 32.3082 48.2772 29.5082 46.2772C20.6082 39.9772 19.1082 30.2772 22.6082 24.2772C26.8082 17.1772 37.0082 19.3772 42.2082 24.0772C45.2082 26.6772 43.6082 26.6772 46.7082 24.0772Z" fill="url(#paint0_linear_288_234)"/>
<path d="M76.3992 37.6C77.6992 38.1 78.7992 38.5 79.7992 38.8C80.7992 39.1 81.8992 39.2 82.9992 39.2C84.2992 39.2 85.3992 39 86.4992 38.7C87.5992 38.3 88.4992 37.8 89.1992 37.2C89.9992 36.6 90.5992 35.8 90.9992 34.9C91.3992 34 91.5992 33 91.5992 32C91.5992 30.5 91.1992 29.3 90.3992 28.2C89.5992 27.2 88.2992 26.2 86.4992 25.4L84.4992 24.4C84.0992 24.2 83.6992 24 83.3992 23.9C83.0992 23.8 82.8992 23.6 82.6992 23.5C82.4992 23.4 82.3992 23.3 82.1992 23.2C82.0992 23.1 81.9992 22.9 81.8992 22.8C81.7992 22.6 81.5992 22.4 81.5992 22.2C81.4992 21.9 81.4992 21.7 81.4992 21.4C81.4992 20.6 81.7992 20 82.3992 19.5C82.9992 19 83.6992 18.8 84.6992 18.8C85.5992 18.8 86.4992 19 87.3992 19.4C88.2992 19.8 89.1992 20.5 90.0992 21.3V16.9C88.2992 16.3 86.5992 16 84.8992 16C83.6992 16 82.4992 16.2 81.4992 16.5C80.4992 16.8 79.5992 17.3 78.7992 17.9C77.9992 18.5 77.3992 19.2 76.9992 20C76.5992 20.8 76.2992 21.7 76.2992 22.6C76.2992 23.6 76.5992 24.6 77.0992 25.5C77.5992 26.4 78.3992 27.2 79.2992 27.8C79.5992 28 79.9992 28.2 80.3992 28.5C80.7992 28.7 81.1992 28.9 81.6992 29.2L83.3992 30C84.4992 30.5 85.1992 31 85.6992 31.6C86.1992 32.1 86.3992 32.7 86.3992 33.5C86.3992 34.4 85.9992 35.1 85.2992 35.7C84.5992 36.3 83.6992 36.5 82.5992 36.5C81.4992 36.5 80.4992 36.3 79.3992 35.8C78.3992 35.3 77.2992 34.6 76.1992 33.5V37.6H76.3992ZM110.899 38.8H116.199C116.199 38.5 116.199 38.1 116.099 37.6C116.099 37.2 116.099 36.8 115.999 36.4C115.999 36 115.999 35.6 115.999 35.2C115.999 34.8 115.999 34.5 115.999 34.3V16.1H110.899C110.999 16.8 110.999 17.6 110.999 18.4C110.999 19.2 110.999 19.9 110.999 20.6V34.3C110.999 34.7 110.999 35.3 110.999 35.9C110.999 36.5 110.899 37.2 110.899 37.7C110.899 37.9 110.899 38.1 110.899 38.2C110.899 38.4 110.899 38.6 110.899 38.8ZM100.899 25.1C101.799 25.1 102.399 25.6 102.799 26.5C103.199 27.5 103.399 28.9 103.399 30.9C103.399 34.7 102.499 36.7 100.799 36.7C99.0992 36.7 98.1992 34.8 98.1992 30.9C98.1992 28.9 98.3992 27.5 98.7992 26.5C99.2992 25.5 99.9992 25.1 100.899 25.1ZM93.2992 30.8C93.2992 32.1 93.4992 33.2 93.7992 34.3C94.0992 35.3 94.6992 36.2 95.2992 36.9C95.9992 37.6 96.7992 38.2 97.6992 38.6C98.5992 39 99.6992 39.2 100.899 39.2C102.099 39.2 103.099 39 104.099 38.6C104.999 38.2 105.799 37.7 106.499 36.9C107.199 36.2 107.699 35.3 107.999 34.3C108.399 33.3 108.499 32.1 108.499 30.8C108.499 29.5 108.299 28.4 107.999 27.3C107.699 26.3 107.199 25.4 106.499 24.7C105.799 24 105.099 23.4 104.099 23C103.199 22.6 102.099 22.4 100.899 22.4C99.6992 22.4 98.6992 22.6 97.6992 23C96.7992 23.4 95.9992 23.9 95.2992 24.7C94.5992 25.4 94.0992 26.3 93.7992 27.3C93.3992 28.4 93.2992 29.5 93.2992 30.8Z" fill="white"/>
<path d="M208.099 35.3996C207.699 35.6996 207.299 35.9996 206.899 36.0996C206.499 36.1996 206.099 36.2996 205.699 36.2996C204.999 36.2996 204.399 36.0996 203.999 35.6996C203.499 35.2996 203.299 34.6996 203.299 33.9996C203.299 32.6996 204.099 31.6996 205.799 30.8996L206.999 30.2996C207.199 30.1996 207.299 30.0996 207.499 29.9996C207.699 29.8996 207.899 29.7996 208.199 29.5996V35.3996H208.099ZM207.999 27.4996C207.199 27.6996 206.499 27.7996 205.899 27.9996C205.299 28.1996 204.599 28.3996 203.899 28.6996C202.099 29.3996 200.799 30.1996 199.899 31.0996C199.099 31.9996 198.699 33.0996 198.699 34.4996C198.699 35.8996 199.199 36.9996 200.099 37.8996C200.999 38.7996 202.299 39.1996 203.799 39.1996C204.699 39.1996 205.499 39.0996 206.099 38.7996C206.799 38.4996 207.399 38.0996 208.099 37.4996C208.099 37.7996 208.099 37.9996 208.099 38.1996C208.099 38.3996 208.199 38.5996 208.299 38.7996H213.299C213.199 38.4996 213.099 38.1996 213.099 37.9996C213.099 37.7996 212.999 37.5996 212.999 37.3996C212.899 36.9996 212.899 36.4996 212.799 36.0996C212.799 35.5996 212.799 35.0996 212.799 34.4996V27.4996C212.799 25.8996 212.099 24.6996 210.699 23.7996C209.299 22.8996 207.399 22.4996 204.999 22.4996C204.099 22.4996 203.299 22.4996 202.599 22.5996C201.899 22.6996 200.999 22.7996 200.099 22.9996V26.5996C200.999 26.0996 201.799 25.6996 202.499 25.3996C203.199 25.1996 203.899 24.9996 204.599 24.9996C205.499 24.9996 206.299 25.1996 206.999 25.5996C207.599 25.9996 207.999 26.4996 207.999 27.1996V27.4996ZM196.799 22.8996C196.099 22.6996 195.499 22.5996 194.899 22.4996C194.299 22.3996 193.699 22.3996 193.099 22.3996C191.699 22.3996 190.499 22.5996 189.399 23.0996C188.299 23.4996 187.299 24.0996 186.499 24.8996C185.699 25.6996 184.999 26.5996 184.599 27.6996C184.099 28.7996 183.899 29.9996 183.899 31.2996C183.899 32.4996 184.099 33.4996 184.499 34.4996C184.899 35.4996 185.399 36.2996 186.099 36.8996C186.799 37.5996 187.599 38.0996 188.499 38.4996C189.499 38.8996 190.499 39.0996 191.699 39.0996C192.899 39.0996 193.999 38.8996 194.999 38.5996C195.999 38.2996 197.099 37.6996 198.199 36.8996L196.699 34.6996C196.099 35.2996 195.499 35.6996 194.999 35.9996C194.399 36.1996 193.799 36.3996 193.099 36.3996C192.499 36.3996 191.999 36.2996 191.399 35.9996C190.899 35.6996 190.499 35.3996 190.099 34.8996C189.699 34.3996 189.399 33.7996 189.199 33.1996C188.999 32.4996 188.899 31.7996 188.899 30.9996C188.899 30.1996 188.999 29.3996 189.199 28.6996C189.399 27.9996 189.699 27.3996 190.099 26.8996C190.499 26.3996 190.899 25.9996 191.499 25.6996C191.999 25.3996 192.599 25.2996 193.299 25.2996C193.899 25.2996 194.499 25.3996 195.099 25.5996C195.599 25.7996 196.199 26.1996 196.899 26.6996V22.8996H196.799ZM166.599 38.7996H171.999C171.999 38.3996 171.899 37.9996 171.899 37.5996C171.899 37.2996 171.899 36.8996 171.799 36.5996C171.799 36.2996 171.799 35.8996 171.799 35.4996C171.799 35.0996 171.799 34.5996 171.799 33.9996V26.8996C172.199 26.2996 172.599 25.9996 172.899 25.7996C173.299 25.5996 173.699 25.4996 174.199 25.4996C175.599 25.4996 176.299 26.1996 176.299 27.6996V34.0996C176.299 34.2996 176.299 34.4996 176.299 34.7996C176.299 35.0996 176.299 35.3996 176.199 35.7996C176.199 36.1996 176.099 36.5996 176.099 36.9996C176.099 37.3996 176.099 37.7996 175.999 38.1996V38.8996H181.399C181.399 38.3996 181.299 38.0996 181.299 37.7996C181.299 37.4996 181.299 37.1996 181.199 36.8996C181.199 36.3996 181.199 35.9996 181.199 35.4996C181.199 34.9996 181.199 34.5996 181.199 34.0996V27.6996C181.199 26.6996 181.099 25.8996 180.899 25.2996C180.699 24.6996 180.299 24.1996 179.799 23.7996C179.299 23.4996 178.799 23.1996 178.099 22.8996C177.399 22.6996 176.699 22.5996 175.999 22.5996C174.499 22.5996 173.099 23.1996 171.699 24.4996V22.9996H166.599C166.699 23.8996 166.699 24.6996 166.799 25.3996C166.799 26.0996 166.899 26.8996 166.899 27.5996V33.9996C166.899 34.6996 166.899 35.3996 166.799 36.1996C166.799 36.9996 166.699 37.8996 166.599 38.7996ZM158.399 35.3996C157.999 35.6996 157.599 35.9996 157.199 36.0996C156.799 36.1996 156.399 36.2996 155.899 36.2996C155.199 36.2996 154.599 36.0996 154.199 35.6996C153.699 35.2996 153.499 34.6996 153.499 33.9996C153.499 32.6996 154.299 31.6996 155.999 30.8996L157.199 30.2996C157.299 30.1996 157.499 30.0996 157.699 29.9996C157.899 29.8996 158.099 29.7996 158.399 29.5996V35.3996ZM158.299 27.4996C157.499 27.6996 156.799 27.7996 156.199 27.9996C155.599 28.1996 154.999 28.3996 154.199 28.6996C152.399 29.3996 151.099 30.1996 150.199 31.0996C149.399 31.9996 148.999 33.0996 148.999 34.4996C148.999 35.8996 149.499 36.9996 150.399 37.8996C151.299 38.7996 152.599 39.1996 154.099 39.1996C154.999 39.1996 155.799 39.0996 156.399 38.7996C157.099 38.4996 157.699 38.0996 158.399 37.4996C158.399 37.7996 158.399 37.9996 158.399 38.1996C158.399 38.3996 158.499 38.5996 158.599 38.7996H163.599C163.499 38.4996 163.399 38.1996 163.399 37.9996C163.399 37.7996 163.299 37.5996 163.299 37.3996C163.199 36.9996 163.199 36.4996 163.099 36.0996C163.099 35.5996 162.999 35.0996 162.999 34.4996V27.4996C162.999 25.8996 162.299 24.6996 160.899 23.7996C159.499 22.8996 157.599 22.4996 155.199 22.4996C154.299 22.4996 153.499 22.4996 152.799 22.5996C152.099 22.6996 151.199 22.7996 150.299 22.9996V26.5996C151.199 26.0996 151.999 25.6996 152.699 25.3996C153.399 25.1996 154.099 24.9996 154.799 24.9996C155.699 24.9996 156.499 25.1996 157.199 25.5996C157.799 25.9996 158.199 26.4996 158.199 27.1996L158.299 27.4996ZM141.099 38.7996H146.499C146.399 37.9996 146.399 37.1996 146.299 36.4996C146.299 35.7996 146.299 35.0996 146.299 34.2996V22.7996H141.199C141.199 23.2996 141.299 23.6996 141.299 24.0996C141.299 24.4996 141.399 24.9996 141.399 25.5996C141.399 25.8996 141.399 26.1996 141.399 26.4996C141.399 26.6996 141.399 26.8996 141.399 27.0996V34.2996C141.399 34.8996 141.399 35.5996 141.299 36.3996C141.199 37.2996 141.199 38.0996 141.099 38.7996ZM126.999 35.9996V28.3996H128.799C131.799 28.3996 133.199 29.6996 133.199 32.1996C133.199 33.3996 132.899 34.3996 132.199 34.9996C131.499 35.5996 130.599 35.9996 129.299 35.9996H126.999ZM126.899 25.4996V18.8996L128.799 18.7996C130.099 18.7996 130.999 18.9996 131.699 19.5996C132.299 20.1996 132.699 20.9996 132.699 22.0996C132.699 24.2996 131.299 25.4996 128.599 25.4996H126.899ZM121.299 38.7996H130.999C132.199 38.7996 133.299 38.6996 134.099 38.3996C134.799 38.1996 135.399 37.8996 135.999 37.5996C136.599 37.1996 137.099 36.7996 137.399 36.1996C137.799 35.6996 138.099 35.0996 138.299 34.3996C138.499 33.7996 138.599 33.0996 138.599 32.3996C138.599 30.7996 138.099 29.4996 137.199 28.4996C136.199 27.4996 134.899 26.8996 132.999 26.6996C134.499 26.4996 135.699 25.8996 136.599 24.9996C137.399 24.0996 137.899 22.9996 137.899 21.5996C137.899 20.2996 137.499 19.1996 136.799 18.2996C135.999 17.3996 134.999 16.6996 133.699 16.3996C133.299 16.2996 132.899 16.1996 132.399 16.1996C131.899 16.1996 131.399 16.0996 130.899 16.0996H121.299C121.299 16.4996 121.399 16.8996 121.399 17.2996C121.399 17.6996 121.399 17.9996 121.499 18.3996C121.499 18.6996 121.499 19.0996 121.499 19.3996C121.499 19.7996 121.499 20.0996 121.499 20.5996L121.599 34.2996L121.499 35.7996L121.399 36.7996L121.299 38.1996V38.7996Z" fill="white"/>
<path d="M141.499 16.1995C141.399 21.4995 146.799 19.5995 146.799 15.1995C146.599 11.4995 141.599 10.9995 141.499 16.1995Z" fill="white"/>
<path d="M77.3359 55.0195V44.4779H78.4739V45.6958H78.6137C78.7002 45.5627 78.82 45.393 78.9731 45.1867C79.1295 44.977 79.3524 44.7907 79.6419 44.6276C79.9347 44.4613 80.3307 44.3781 80.8298 44.3781C81.4754 44.3781 82.0444 44.5395 82.5369 44.8622C83.0293 45.185 83.4137 45.6425 83.6899 46.2348C83.966 46.8271 84.1041 47.5259 84.1041 48.3312C84.1041 49.1431 83.966 49.8469 83.6899 50.4425C83.4137 51.0348 83.031 51.494 82.5419 51.8201C82.0527 52.1429 81.4887 52.3043 80.8498 52.3043C80.3573 52.3043 79.963 52.2227 79.6669 52.0597C79.3707 51.8933 79.1428 51.7053 78.9831 51.4957C78.8233 51.2827 78.7002 51.1063 78.6137 50.9666H78.5139V55.0195H77.3359ZM78.4939 48.3112C78.4939 48.8902 78.5788 49.401 78.7485 49.8435C78.9182 50.2828 79.1661 50.6272 79.4922 50.8767C79.8183 51.123 80.2176 51.2461 80.6901 51.2461C81.1826 51.2461 81.5935 51.1163 81.9229 50.8568C82.2557 50.5939 82.5053 50.2412 82.6716 49.7986C82.8413 49.3527 82.9262 48.8569 82.9262 48.3112C82.9262 47.7722 82.843 47.2863 82.6766 46.8538C82.5136 46.4178 82.2657 46.0734 81.9329 45.8206C81.6035 45.5643 81.1892 45.4362 80.6901 45.4362C80.2109 45.4362 79.8083 45.5577 79.4822 45.8006C79.1561 46.0402 78.9099 46.3763 78.7435 46.8088C78.5771 47.2381 78.4939 47.7389 78.4939 48.3112ZM85.901 52.1445V44.4779H87.039V45.6359H87.1189C87.2586 45.2565 87.5115 44.9487 87.8776 44.7125C88.2436 44.4762 88.6562 44.3581 89.1154 44.3581C89.2019 44.3581 89.3101 44.3598 89.4398 44.3631C89.5696 44.3664 89.6678 44.3714 89.7343 44.3781V45.576C89.6944 45.566 89.6029 45.551 89.4598 45.5311C89.32 45.5078 89.172 45.4961 89.0156 45.4961C88.6429 45.4961 88.3101 45.5743 88.0173 45.7307C87.7278 45.8838 87.4982 46.0967 87.3285 46.3696C87.1621 46.6391 87.079 46.9469 87.079 47.293V52.1445H85.901ZM94.0119 52.3043C93.3197 52.3043 92.7125 52.1395 92.19 51.8101C91.6709 51.4807 91.265 51.0198 90.9722 50.4275C90.6827 49.8352 90.5379 49.1431 90.5379 48.3511C90.5379 47.5525 90.6827 46.8554 90.9722 46.2598C91.265 45.6642 91.6709 45.2016 92.19 44.8722C92.7125 44.5428 93.3197 44.3781 94.0119 44.3781C94.704 44.3781 95.3096 44.5428 95.8287 44.8722C96.3511 45.2016 96.7571 45.6642 97.0466 46.2598C97.3394 46.8554 97.4858 47.5525 97.4858 48.3511C97.4858 49.1431 97.3394 49.8352 97.0466 50.4275C96.7571 51.0198 96.3511 51.4807 95.8287 51.8101C95.3096 52.1395 94.704 52.3043 94.0119 52.3043ZM94.0119 51.2461C94.5376 51.2461 94.9702 51.1113 95.3096 50.8418C95.649 50.5723 95.9002 50.2179 96.0633 49.7787C96.2263 49.3394 96.3079 48.8636 96.3079 48.3511C96.3079 47.8387 96.2263 47.3612 96.0633 46.9186C95.9002 46.4761 95.649 46.1184 95.3096 45.8455C94.9702 45.5727 94.5376 45.4362 94.0119 45.4362C93.4861 45.4362 93.0535 45.5727 92.7141 45.8455C92.3747 46.1184 92.1235 46.4761 91.9604 46.9186C91.7974 47.3612 91.7159 47.8387 91.7159 48.3511C91.7159 48.8636 91.7974 49.3394 91.9604 49.7787C92.1235 50.2179 92.3747 50.5723 92.7141 50.8418C93.0535 51.1113 93.4861 51.2461 94.0119 51.2461ZM102.698 44.4779V45.4762H98.5652V44.4779H102.698ZM99.803 52.1445V43.4197C99.803 42.9805 99.9062 42.6145 100.112 42.3217C100.319 42.0288 100.587 41.8092 100.916 41.6628C101.246 41.5164 101.593 41.4432 101.959 41.4432C102.249 41.4432 102.485 41.4665 102.668 41.5131C102.851 41.5596 102.987 41.6029 103.077 41.6428L102.738 42.6611C102.678 42.6411 102.595 42.6161 102.488 42.5862C102.385 42.5562 102.249 42.5413 102.079 42.5413C101.69 42.5413 101.409 42.6394 101.236 42.8358C101.066 43.0321 100.981 43.3199 100.981 43.6993V52.1445H99.803ZM107.248 52.3043C106.509 52.3043 105.872 52.1412 105.336 51.8151C104.803 51.4857 104.393 51.0265 104.103 50.4375C103.817 49.8452 103.674 49.1564 103.674 48.3711C103.674 47.5858 103.817 46.8937 104.103 46.2947C104.393 45.6924 104.795 45.2233 105.311 44.8872C105.83 44.5478 106.436 44.3781 107.128 44.3781C107.527 44.3781 107.921 44.4446 108.311 44.5777C108.7 44.7108 109.054 44.9271 109.374 45.2266C109.693 45.5227 109.948 45.9154 110.138 46.4045C110.327 46.8937 110.422 47.496 110.422 48.2114V48.7105H104.512V47.6923H109.224C109.224 47.2597 109.138 46.8737 108.965 46.5343C108.795 46.1949 108.552 45.927 108.236 45.7307C107.923 45.5344 107.554 45.4362 107.128 45.4362C106.659 45.4362 106.253 45.5527 105.91 45.7856C105.57 46.0152 105.309 46.3147 105.126 46.684C104.943 47.0534 104.852 47.4494 104.852 47.872V48.5508C104.852 49.1298 104.952 49.6206 105.151 50.0232C105.354 50.4225 105.635 50.727 105.995 50.9366C106.354 51.1429 106.772 51.2461 107.248 51.2461C107.557 51.2461 107.837 51.2028 108.086 51.1163C108.339 51.0265 108.557 50.8934 108.74 50.717C108.923 50.5373 109.064 50.3144 109.164 50.0482L110.302 50.3676C110.182 50.7536 109.981 51.093 109.698 51.3859C109.415 51.6753 109.066 51.9016 108.65 52.0647C108.234 52.2244 107.767 52.3043 107.248 52.3043ZM117.644 46.1949L116.586 46.4944C116.52 46.318 116.422 46.1467 116.292 45.9803C116.165 45.8106 115.992 45.6708 115.773 45.561C115.553 45.4512 115.272 45.3963 114.929 45.3963C114.46 45.3963 114.069 45.5044 113.756 45.7207C113.447 45.9337 113.292 46.2049 113.292 46.5343C113.292 46.8271 113.398 47.0584 113.611 47.2281C113.824 47.3978 114.157 47.5392 114.61 47.6524L115.748 47.9319C116.433 48.0983 116.944 48.3528 117.28 48.6955C117.616 49.035 117.784 49.4725 117.784 50.0083C117.784 50.4475 117.658 50.8401 117.405 51.1862C117.155 51.5323 116.806 51.8051 116.357 52.0048C115.907 52.2044 115.385 52.3043 114.789 52.3043C114.007 52.3043 113.36 52.1345 112.848 51.7951C112.335 51.4557 112.011 50.9599 111.874 50.3077L112.993 50.0282C113.099 50.4408 113.3 50.7503 113.596 50.9566C113.896 51.1629 114.287 51.2661 114.769 51.2661C115.318 51.2661 115.754 51.1496 116.077 50.9167C116.403 50.6804 116.566 50.3976 116.566 50.0682C116.566 49.8019 116.473 49.579 116.287 49.3993C116.1 49.2163 115.814 49.0799 115.428 48.99L114.151 48.6906C113.448 48.5242 112.933 48.2663 112.603 47.9169C112.277 47.5642 112.114 47.1233 112.114 46.5942C112.114 46.1616 112.236 45.779 112.478 45.4462C112.725 45.1135 113.059 44.8522 113.482 44.6626C113.908 44.4729 114.39 44.3781 114.929 44.3781C115.688 44.3781 116.283 44.5444 116.716 44.8772C117.152 45.21 117.461 45.6492 117.644 46.1949ZM124.988 46.1949L123.93 46.4944C123.863 46.318 123.765 46.1467 123.635 45.9803C123.509 45.8106 123.336 45.6708 123.116 45.561C122.897 45.4512 122.615 45.3963 122.273 45.3963C121.803 45.3963 121.412 45.5044 121.1 45.7207C120.79 45.9337 120.635 46.2049 120.635 46.5343C120.635 46.8271 120.742 47.0584 120.955 47.2281C121.168 47.3978 121.501 47.5392 121.953 47.6524L123.091 47.9319C123.777 48.0983 124.287 48.3528 124.624 48.6955C124.96 49.035 125.128 49.4725 125.128 50.0083C125.128 50.4475 125.001 50.8401 124.748 51.1862C124.499 51.5323 124.149 51.8051 123.7 52.0048C123.251 52.2044 122.728 52.3043 122.133 52.3043C121.351 52.3043 120.704 52.1345 120.191 51.7951C119.679 51.4557 119.354 50.9599 119.218 50.3077L120.336 50.0282C120.442 50.4408 120.644 50.7503 120.94 50.9566C121.239 51.1629 121.63 51.2661 122.113 51.2661C122.662 51.2661 123.098 51.1496 123.421 50.9167C123.747 50.6804 123.91 50.3976 123.91 50.0682C123.91 49.8019 123.817 49.579 123.63 49.3993C123.444 49.2163 123.158 49.0799 122.772 48.99L121.494 48.6906C120.792 48.5242 120.276 48.2663 119.947 47.9169C119.621 47.5642 119.458 47.1233 119.458 46.5942C119.458 46.1616 119.579 45.779 119.822 45.4462C120.068 45.1135 120.403 44.8522 120.825 44.6626C121.251 44.4729 121.734 44.3781 122.273 44.3781C123.031 44.3781 123.627 44.5444 124.059 44.8772C124.495 45.21 124.805 45.6492 124.988 46.1949ZM126.901 52.1445V44.4779H128.079V52.1445H126.901ZM127.5 43.2001C127.27 43.2001 127.072 43.1219 126.906 42.9655C126.743 42.8091 126.661 42.6211 126.661 42.4015C126.661 42.1819 126.743 41.9939 126.906 41.8375C127.072 41.6811 127.27 41.6029 127.5 41.6029C127.729 41.6029 127.926 41.6811 128.089 41.8375C128.255 41.9939 128.338 42.1819 128.338 42.4015C128.338 42.6211 128.255 42.8091 128.089 42.9655C127.926 43.1219 127.729 43.2001 127.5 43.2001ZM133.351 52.3043C132.659 52.3043 132.051 52.1395 131.529 51.8101C131.01 51.4807 130.604 51.0198 130.311 50.4275C130.022 49.8352 129.877 49.1431 129.877 48.3511C129.877 47.5525 130.022 46.8554 130.311 46.2598C130.604 45.6642 131.01 45.2016 131.529 44.8722C132.051 44.5428 132.659 44.3781 133.351 44.3781C134.043 44.3781 134.649 44.5428 135.168 44.8722C135.69 45.2016 136.096 45.6642 136.386 46.2598C136.678 46.8554 136.825 47.5525 136.825 48.3511C136.825 49.1431 136.678 49.8352 136.386 50.4275C136.096 51.0198 135.69 51.4807 135.168 51.8101C134.649 52.1395 134.043 52.3043 133.351 52.3043ZM133.351 51.2461C133.877 51.2461 134.309 51.1113 134.649 50.8418C134.988 50.5723 135.239 50.2179 135.402 49.7787C135.565 49.3394 135.647 48.8636 135.647 48.3511C135.647 47.8387 135.565 47.3612 135.402 46.9186C135.239 46.4761 134.988 46.1184 134.649 45.8455C134.309 45.5727 133.877 45.4362 133.351 45.4362C132.825 45.4362 132.392 45.5727 132.053 45.8455C131.714 46.1184 131.462 46.4761 131.299 46.9186C131.136 47.3612 131.055 47.8387 131.055 48.3511C131.055 48.8636 131.136 49.3394 131.299 49.7787C131.462 50.2179 131.714 50.5723 132.053 50.8418C132.392 51.1113 132.825 51.2461 133.351 51.2461ZM139.801 47.5326V52.1445H138.623V44.4779H139.761V45.6758H139.861C140.04 45.2865 140.313 44.9737 140.679 44.7374C141.045 44.4979 141.518 44.3781 142.097 44.3781C142.616 44.3781 143.07 44.4845 143.459 44.6975C143.849 44.9071 144.152 45.2266 144.368 45.6558C144.584 46.0818 144.692 46.6208 144.692 47.273V52.1445H143.514V47.3529C143.514 46.7506 143.358 46.2814 143.045 45.9453C142.732 45.6059 142.303 45.4362 141.757 45.4362C141.381 45.4362 141.045 45.5177 140.749 45.6808C140.456 45.8438 140.225 46.0818 140.055 46.3946C139.886 46.7073 139.801 47.0867 139.801 47.5326ZM149.101 52.3242C148.615 52.3242 148.174 52.2327 147.778 52.0497C147.382 51.8634 147.068 51.5955 146.835 51.2461C146.602 50.8934 146.485 50.4675 146.485 49.9683C146.485 49.5291 146.572 49.173 146.745 48.9002C146.918 48.624 147.149 48.4077 147.439 48.2513C147.728 48.0949 148.048 47.9785 148.397 47.9019C148.75 47.8221 149.104 47.7588 149.46 47.7123C149.926 47.6524 150.304 47.6074 150.593 47.5775C150.886 47.5442 151.099 47.4893 151.232 47.4128C151.369 47.3362 151.437 47.2031 151.437 47.0135V46.9735C151.437 46.4811 151.302 46.0984 151.032 45.8255C150.766 45.5527 150.362 45.4163 149.82 45.4163C149.257 45.4163 148.816 45.5394 148.497 45.7856C148.177 46.0319 147.953 46.2947 147.823 46.5742L146.705 46.1749C146.905 45.7091 147.171 45.3464 147.504 45.0868C147.84 44.824 148.206 44.6409 148.602 44.5378C149.001 44.4313 149.394 44.3781 149.78 44.3781C150.026 44.3781 150.309 44.408 150.628 44.4679C150.951 44.5245 151.262 44.6426 151.562 44.8223C151.864 45.002 152.116 45.2732 152.315 45.6359C152.515 45.9986 152.615 46.4844 152.615 47.0933V52.1445H151.437V51.1063H151.377C151.297 51.2727 151.164 51.4507 150.978 51.6404C150.791 51.8301 150.543 51.9915 150.234 52.1246C149.924 52.2577 149.547 52.3242 149.101 52.3242ZM149.281 51.2661C149.746 51.2661 150.139 51.1746 150.458 50.9915C150.781 50.8085 151.024 50.5723 151.187 50.2828C151.354 49.9933 151.437 49.6888 151.437 49.3694V48.2912C151.387 48.3511 151.277 48.406 151.107 48.456C150.941 48.5025 150.748 48.5441 150.528 48.5807C150.312 48.614 150.101 48.644 149.894 48.6706C149.691 48.6939 149.527 48.7138 149.4 48.7305C149.094 48.7704 148.808 48.8353 148.542 48.9251C148.279 49.0117 148.066 49.1431 147.903 49.3195C147.743 49.4925 147.663 49.7287 147.663 50.0282C147.663 50.4375 147.815 50.747 148.118 50.9566C148.424 51.1629 148.811 51.2661 149.281 51.2661ZM155.943 41.9223V52.1445H154.765V41.9223H155.943Z" fill="white"/>
<path d="M225.2 13.5996H223.4V54.7996H225.2V13.5996Z" fill="white"/>
<path d="M235.578 31.8262V17.2807H240.493C241.634 17.2807 242.566 17.4867 243.291 17.8986C244.02 18.3058 244.56 18.8574 244.91 19.5534C245.261 20.2495 245.436 21.026 245.436 21.883C245.436 22.74 245.261 23.5189 244.91 24.2196C244.565 24.9204 244.029 25.4791 243.305 25.8958C242.581 26.3077 241.653 26.5137 240.521 26.5137H236.998V24.9512H240.464C241.245 24.9512 241.873 24.8162 242.346 24.5463C242.82 24.2765 243.163 23.9119 243.376 23.4526C243.594 22.9886 243.703 22.4654 243.703 21.883C243.703 21.3006 243.594 20.7798 243.376 20.3205C243.163 19.8612 242.817 19.5014 242.339 19.2409C241.861 18.9758 241.226 18.8432 240.436 18.8432H237.339V31.8262H235.578ZM248.046 31.8262V20.9171H249.665V22.5648H249.779C249.978 22.025 250.337 21.5871 250.858 21.2509C251.379 20.9147 251.966 20.7466 252.62 20.7466C252.743 20.7466 252.897 20.749 253.081 20.7537C253.266 20.7585 253.406 20.7656 253.5 20.775V22.4796C253.444 22.4654 253.313 22.4441 253.11 22.4157C252.911 22.3825 252.7 22.3659 252.478 22.3659C251.947 22.3659 251.474 22.4772 251.057 22.6998C250.645 22.9176 250.319 23.2206 250.077 23.6088C249.84 23.9924 249.722 24.4303 249.722 24.9228V31.8262H248.046ZM259.587 32.0534C258.602 32.0534 257.738 31.8191 256.995 31.3503C256.256 30.8816 255.678 30.2258 255.262 29.383C254.85 28.5402 254.644 27.5553 254.644 26.4284C254.644 25.2921 254.85 24.3001 255.262 23.4526C255.678 22.6051 256.256 21.9469 256.995 21.4782C257.738 21.0094 258.602 20.775 259.587 20.775C260.572 20.775 261.434 21.0094 262.172 21.4782C262.916 21.9469 263.493 22.6051 263.905 23.4526C264.322 24.3001 264.53 25.2921 264.53 26.4284C264.53 27.5553 264.322 28.5402 263.905 29.383C263.493 30.2258 262.916 30.8816 262.172 31.3503C261.434 31.8191 260.572 32.0534 259.587 32.0534ZM259.587 30.5478C260.335 30.5478 260.951 30.356 261.434 29.9725C261.917 29.589 262.274 29.0847 262.506 28.4597C262.738 27.8347 262.854 27.1576 262.854 26.4284C262.854 25.6993 262.738 25.0198 262.506 24.3901C262.274 23.7604 261.917 23.2514 261.434 22.8631C260.951 22.4748 260.335 22.2807 259.587 22.2807C258.839 22.2807 258.223 22.4748 257.74 22.8631C257.257 23.2514 256.9 23.7604 256.668 24.3901C256.436 25.0198 256.32 25.6993 256.32 26.4284C256.32 27.1576 256.436 27.8347 256.668 28.4597C256.9 29.0847 257.257 29.589 257.74 29.9725C258.223 30.356 258.839 30.5478 259.587 30.5478ZM271.947 20.9171V22.3375H266.066V20.9171H271.947ZM267.827 31.8262V19.4114C267.827 18.7864 267.974 18.2656 268.268 17.8489C268.561 17.4322 268.942 17.1197 269.411 16.9114C269.88 16.7031 270.375 16.5989 270.896 16.5989C271.308 16.5989 271.644 16.632 271.904 16.6983C272.165 16.7646 272.359 16.8262 272.487 16.883L272.004 18.3319C271.918 18.3034 271.8 18.2679 271.648 18.2253C271.502 18.1827 271.308 18.1614 271.066 18.1614C270.512 18.1614 270.112 18.3011 269.866 18.5804C269.624 18.8598 269.504 19.2694 269.504 19.8091V31.8262H267.827ZM278.42 32.0534C277.369 32.0534 276.463 31.8214 275.7 31.3574C274.943 30.8887 274.358 30.2353 273.946 29.3972C273.539 28.5544 273.335 27.5743 273.335 26.4569C273.335 25.3394 273.539 24.3546 273.946 23.5023C274.358 22.6453 274.931 21.9777 275.665 21.4995C276.403 21.0165 277.265 20.775 278.25 20.775C278.818 20.775 279.379 20.8697 279.933 21.0591C280.487 21.2485 280.991 21.5563 281.446 21.9824C281.901 22.4038 282.263 22.9625 282.533 23.6586C282.803 24.3546 282.938 25.2116 282.938 26.2296V26.9398H274.528V25.4909H281.233C281.233 24.8754 281.11 24.3262 280.864 23.8432C280.622 23.3603 280.277 22.9791 279.827 22.6998C279.382 22.4204 278.856 22.2807 278.25 22.2807C277.582 22.2807 277.005 22.4464 276.517 22.7779C276.034 23.1046 275.662 23.5307 275.402 24.0563C275.142 24.5819 275.011 25.1453 275.011 25.7466V26.7125C275.011 27.5364 275.153 28.2348 275.438 28.8077C275.726 29.3759 276.126 29.8091 276.638 30.1074C277.149 30.401 277.743 30.5478 278.42 30.5478C278.861 30.5478 279.259 30.4862 279.614 30.3631C279.973 30.2353 280.284 30.0459 280.544 29.7949C280.804 29.5392 281.006 29.222 281.148 28.8432L282.767 29.2978C282.597 29.847 282.31 30.33 281.908 30.7466C281.505 31.1586 281.008 31.4805 280.416 31.7125C279.824 31.9398 279.159 32.0534 278.42 32.0534ZM293.214 23.3603L291.709 23.7864C291.614 23.5355 291.474 23.2916 291.29 23.0549C291.11 22.8134 290.864 22.6145 290.551 22.4583C290.239 22.302 289.839 22.2239 289.351 22.2239C288.683 22.2239 288.127 22.3778 287.682 22.6855C287.241 22.9886 287.021 23.3745 287.021 23.8432C287.021 24.2599 287.173 24.589 287.476 24.8304C287.779 25.0719 288.252 25.2731 288.896 25.4341L290.516 25.8319C291.491 26.0686 292.218 26.4308 292.696 26.9185C293.174 27.4015 293.413 28.0241 293.413 28.7864C293.413 29.4114 293.233 29.9701 292.874 30.4625C292.518 30.955 292.021 31.3432 291.382 31.6273C290.743 31.9114 290 32.0534 289.152 32.0534C288.039 32.0534 287.118 31.812 286.389 31.329C285.66 30.8461 285.198 30.1406 285.004 29.2125L286.595 28.8148C286.747 29.4019 287.033 29.8423 287.455 30.1358C287.881 30.4294 288.437 30.5762 289.124 30.5762C289.905 30.5762 290.525 30.4105 290.984 30.079C291.448 29.7428 291.68 29.3404 291.68 28.8716C291.68 28.4928 291.548 28.1756 291.283 27.9199C291.018 27.6595 290.61 27.4654 290.061 27.3375L288.243 26.9114C287.244 26.6747 286.51 26.3077 286.041 25.8105C285.577 25.3087 285.345 24.6813 285.345 23.9284C285.345 23.3129 285.518 22.7684 285.864 22.2949C286.214 21.8214 286.69 21.4498 287.291 21.1799C287.897 20.91 288.584 20.775 289.351 20.775C290.43 20.775 291.278 21.0118 291.893 21.4853C292.514 21.9587 292.954 22.5837 293.214 23.3603ZM303.664 23.3603L302.158 23.7864C302.063 23.5355 301.924 23.2916 301.739 23.0549C301.559 22.8134 301.313 22.6145 301 22.4583C300.688 22.302 300.288 22.2239 299.8 22.2239C299.132 22.2239 298.576 22.3778 298.131 22.6855C297.691 22.9886 297.471 23.3745 297.471 23.8432C297.471 24.2599 297.622 24.589 297.925 24.8304C298.228 25.0719 298.702 25.2731 299.346 25.4341L300.965 25.8319C301.94 26.0686 302.667 26.4308 303.145 26.9185C303.623 27.4015 303.863 28.0241 303.863 28.7864C303.863 29.4114 303.683 29.9701 303.323 30.4625C302.968 30.955 302.471 31.3432 301.831 31.6273C301.192 31.9114 300.449 32.0534 299.601 32.0534C298.489 32.0534 297.568 31.812 296.838 31.329C296.109 30.8461 295.648 30.1406 295.453 29.2125L297.044 28.8148C297.196 29.4019 297.482 29.8423 297.904 30.1358C298.33 30.4294 298.886 30.5762 299.573 30.5762C300.354 30.5762 300.974 30.4105 301.434 30.079C301.898 29.7428 302.13 29.3404 302.13 28.8716C302.13 28.4928 301.997 28.1756 301.732 27.9199C301.467 27.6595 301.06 27.4654 300.51 27.3375L298.692 26.9114C297.693 26.6747 296.959 26.3077 296.49 25.8105C296.026 25.3087 295.794 24.6813 295.794 23.9284C295.794 23.3129 295.967 22.7684 296.313 22.2949C296.663 21.8214 297.139 21.4498 297.74 21.1799C298.346 20.91 299.033 20.775 299.8 20.775C300.88 20.775 301.727 21.0118 302.343 21.4853C302.963 21.9587 303.403 22.5837 303.664 23.3603ZM306.386 31.8262V20.9171H308.062V31.8262H306.386ZM307.238 19.0989C306.911 19.0989 306.629 18.9876 306.393 18.7651C306.161 18.5426 306.045 18.275 306.045 17.9625C306.045 17.65 306.161 17.3825 306.393 17.16C306.629 16.9374 306.911 16.8262 307.238 16.8262C307.565 16.8262 307.844 16.9374 308.076 17.16C308.313 17.3825 308.431 17.65 308.431 17.9625C308.431 18.275 308.313 18.5426 308.076 18.7651C307.844 18.9876 307.565 19.0989 307.238 19.0989ZM315.564 32.0534C314.579 32.0534 313.715 31.8191 312.971 31.3503C312.233 30.8816 311.655 30.2258 311.238 29.383C310.826 28.5402 310.62 27.5553 310.62 26.4284C310.62 25.2921 310.826 24.3001 311.238 23.4526C311.655 22.6051 312.233 21.9469 312.971 21.4782C313.715 21.0094 314.579 20.775 315.564 20.775C316.548 20.775 317.41 21.0094 318.149 21.4782C318.892 21.9469 319.47 22.6051 319.882 23.4526C320.298 24.3001 320.507 25.2921 320.507 26.4284C320.507 27.5553 320.298 28.5402 319.882 29.383C319.47 30.2258 318.892 30.8816 318.149 31.3503C317.41 31.8191 316.548 32.0534 315.564 32.0534ZM315.564 30.5478C316.312 30.5478 316.927 30.356 317.41 29.9725C317.893 29.589 318.251 29.0847 318.483 28.4597C318.715 27.8347 318.831 27.1576 318.831 26.4284C318.831 25.6993 318.715 25.0198 318.483 24.3901C318.251 23.7604 317.893 23.2514 317.41 22.8631C316.927 22.4748 316.312 22.2807 315.564 22.2807C314.815 22.2807 314.2 22.4748 313.717 22.8631C313.234 23.2514 312.877 23.7604 312.645 24.3901C312.413 25.0198 312.297 25.6993 312.297 26.4284C312.297 27.1576 312.413 27.8347 312.645 28.4597C312.877 29.0847 313.234 29.589 313.717 29.9725C314.2 30.356 314.815 30.5478 315.564 30.5478ZM324.741 25.2637V31.8262H323.065V20.9171H324.685V22.6216H324.827C325.082 22.0676 325.471 21.6226 325.991 21.2864C326.512 20.9455 327.185 20.775 328.009 20.775C328.747 20.775 329.393 20.9266 329.947 21.2296C330.501 21.5279 330.932 21.9824 331.24 22.5932C331.548 23.1993 331.702 23.9663 331.702 24.8944V31.8262H330.026V25.008C330.026 24.151 329.803 23.4834 329.358 23.0051C328.913 22.5222 328.302 22.2807 327.526 22.2807C326.991 22.2807 326.512 22.3967 326.091 22.6287C325.674 22.8607 325.345 23.1993 325.104 23.6444C324.862 24.0894 324.741 24.6292 324.741 25.2637ZM337.975 32.0819C337.283 32.0819 336.656 31.9516 336.093 31.6912C335.529 31.4261 335.082 31.0449 334.75 30.5478C334.419 30.0459 334.253 29.4398 334.253 28.7296C334.253 28.1046 334.376 27.598 334.623 27.2097C334.869 26.8167 335.198 26.5089 335.61 26.2864C336.022 26.0639 336.476 25.8981 336.973 25.7892C337.475 25.6756 337.98 25.5856 338.486 25.5194C339.149 25.4341 339.686 25.3702 340.098 25.3276C340.515 25.2802 340.818 25.2021 341.007 25.0932C341.202 24.9843 341.299 24.7949 341.299 24.525V24.4682C341.299 23.7675 341.107 23.223 340.723 22.8347C340.345 22.4464 339.769 22.2523 338.998 22.2523C338.197 22.2523 337.57 22.4275 337.115 22.7779C336.661 23.1283 336.341 23.5023 336.157 23.9L334.566 23.3319C334.85 22.669 335.229 22.1529 335.702 21.7836C336.18 21.4095 336.701 21.1491 337.265 21.0023C337.833 20.8508 338.391 20.775 338.941 20.775C339.291 20.775 339.694 20.8176 340.148 20.9029C340.607 20.9834 341.05 21.1515 341.476 21.4071C341.907 21.6628 342.265 22.0487 342.549 22.5648C342.833 23.0809 342.975 23.7722 342.975 24.6387V31.8262H341.299V30.3489H341.213C341.1 30.5856 340.91 30.839 340.645 31.1088C340.38 31.3787 340.027 31.6084 339.587 31.7978C339.147 31.9872 338.609 32.0819 337.975 32.0819ZM338.23 30.5762C338.893 30.5762 339.452 30.446 339.907 30.1855C340.366 29.9251 340.712 29.589 340.944 29.177C341.18 28.7651 341.299 28.3319 341.299 27.8773V26.3432C341.228 26.4284 341.071 26.5066 340.83 26.5776C340.593 26.6439 340.319 26.7031 340.006 26.7551C339.698 26.8025 339.398 26.8451 339.104 26.883C338.815 26.9161 338.581 26.9445 338.401 26.9682C337.965 27.025 337.558 27.1174 337.179 27.2452C336.805 27.3683 336.502 27.5553 336.27 27.8063C336.043 28.0525 335.929 28.3887 335.929 28.8148C335.929 29.3972 336.145 29.8375 336.576 30.1358C337.011 30.4294 337.563 30.5762 338.23 30.5762ZM347.71 17.2807V31.8262H346.034V17.2807H347.71Z" fill="white"/>
<path d="M234.782 38.0424V36.4799H245.691V38.0424H241.118V51.0254H239.356V38.0424H234.782ZM249.908 51.2811C249.217 51.2811 248.59 51.1509 248.026 50.8904C247.463 50.6253 247.015 50.2441 246.684 49.747C246.353 49.2451 246.187 48.639 246.187 47.9288C246.187 47.3038 246.31 46.7972 246.556 46.4089C246.802 46.0159 247.131 45.7082 247.543 45.4856C247.955 45.2631 248.41 45.0974 248.907 44.9885C249.409 44.8748 249.913 44.7849 250.42 44.7186C251.083 44.6333 251.62 44.5694 252.032 44.5268C252.449 44.4795 252.752 44.4013 252.941 44.2924C253.135 44.1835 253.232 43.9941 253.232 43.7243V43.6674C253.232 42.9667 253.04 42.4222 252.657 42.0339C252.278 41.6457 251.703 41.4515 250.931 41.4515C250.131 41.4515 249.504 41.6267 249.049 41.9771C248.594 42.3275 248.275 42.7015 248.09 43.0993L246.499 42.5311C246.783 41.8682 247.162 41.3521 247.636 40.9828C248.114 40.6087 248.635 40.3483 249.198 40.2015C249.766 40.05 250.325 39.9743 250.874 39.9743C251.225 39.9743 251.627 40.0169 252.082 40.1021C252.541 40.1826 252.984 40.3507 253.41 40.6064C253.841 40.862 254.198 41.2479 254.482 41.764C254.766 42.2801 254.908 42.9714 254.908 43.8379V51.0254H253.232V49.5481H253.147C253.033 49.7849 252.844 50.0382 252.579 50.3081C252.314 50.5779 251.961 50.8076 251.521 50.997C251.08 51.1864 250.543 51.2811 249.908 51.2811ZM250.164 49.7754C250.827 49.7754 251.386 49.6452 251.84 49.3848C252.299 49.1243 252.645 48.7882 252.877 48.3762C253.114 47.9643 253.232 47.5311 253.232 47.0765V45.5424C253.161 45.6277 253.005 45.7058 252.763 45.7768C252.527 45.8431 252.252 45.9023 251.94 45.9544C251.632 46.0017 251.331 46.0443 251.038 46.0822C250.749 46.1154 250.514 46.1438 250.335 46.1674C249.899 46.2243 249.492 46.3166 249.113 46.4444C248.739 46.5675 248.436 46.7546 248.204 47.0055C247.977 47.2517 247.863 47.5879 247.863 48.014C247.863 48.5964 248.078 49.0368 248.509 49.335C248.945 49.6286 249.496 49.7754 250.164 49.7754ZM259.644 44.4629V51.0254H257.968V40.1163H259.587V41.8208H259.729C259.985 41.2669 260.373 40.8218 260.894 40.4856C261.415 40.1447 262.087 39.9743 262.911 39.9743C263.65 39.9743 264.296 40.1258 264.85 40.4288C265.404 40.7271 265.835 41.1816 266.142 41.7924C266.45 42.3985 266.604 43.1655 266.604 44.0936V51.0254H264.928V44.2072C264.928 43.3502 264.705 42.6826 264.26 42.2044C263.815 41.7214 263.204 41.4799 262.428 41.4799C261.893 41.4799 261.415 41.5959 260.993 41.8279C260.577 42.06 260.248 42.3985 260.006 42.8436C259.765 43.2886 259.644 43.8284 259.644 44.4629ZM271.343 44.4629V51.0254H269.667V40.1163H271.286V41.8208H271.428C271.684 41.2669 272.072 40.8218 272.593 40.4856C273.114 40.1447 273.786 39.9743 274.61 39.9743C275.349 39.9743 275.995 40.1258 276.549 40.4288C277.103 40.7271 277.534 41.1816 277.842 41.7924C278.149 42.3985 278.303 43.1655 278.303 44.0936V51.0254H276.627V44.2072C276.627 43.3502 276.405 42.6826 275.96 42.2044C275.514 41.7214 274.904 41.4799 274.127 41.4799C273.592 41.4799 273.114 41.5959 272.692 41.8279C272.276 42.06 271.947 42.3985 271.705 42.8436C271.464 43.2886 271.343 43.8284 271.343 44.4629ZM281.366 51.0254V40.1163H283.042V51.0254H281.366ZM282.218 38.2981C281.892 38.2981 281.61 38.1868 281.373 37.9643C281.141 37.7418 281.025 37.4743 281.025 37.1618C281.025 36.8493 281.141 36.5817 281.373 36.3592C281.61 36.1367 281.892 36.0254 282.218 36.0254C282.545 36.0254 282.824 36.1367 283.056 36.3592C283.293 36.5817 283.412 36.8493 283.412 37.1618C283.412 37.4743 283.293 37.7418 283.056 37.9643C282.824 38.1868 282.545 38.2981 282.218 38.2981ZM287.788 44.4629V51.0254H286.112V40.1163H287.732V41.8208H287.874C288.129 41.2669 288.518 40.8218 289.038 40.4856C289.559 40.1447 290.232 39.9743 291.055 39.9743C291.794 39.9743 292.44 40.1258 292.994 40.4288C293.548 40.7271 293.979 41.1816 294.287 41.7924C294.595 42.3985 294.749 43.1655 294.749 44.0936V51.0254H293.072V44.2072C293.072 43.3502 292.85 42.6826 292.405 42.2044C291.96 41.7214 291.349 41.4799 290.572 41.4799C290.037 41.4799 289.559 41.5959 289.138 41.8279C288.721 42.06 288.392 42.3985 288.151 42.8436C287.909 43.2886 287.788 43.8284 287.788 44.4629ZM302.215 55.3436C301.405 55.3436 300.709 55.2394 300.127 55.0311C299.544 54.8275 299.059 54.5576 298.671 54.2214C298.287 53.89 297.982 53.5349 297.755 53.1561L299.09 52.2186C299.241 52.4174 299.433 52.6447 299.665 52.9004C299.897 53.1608 300.214 53.3857 300.617 53.5751C301.024 53.7692 301.557 53.8663 302.215 53.8663C303.096 53.8663 303.822 53.6532 304.395 53.2271C304.968 52.801 305.255 52.1333 305.255 51.2243V49.0083H305.113C304.989 49.2072 304.814 49.4534 304.587 49.747C304.364 50.0358 304.042 50.2939 303.621 50.5211C303.204 50.7437 302.641 50.8549 301.931 50.8549C301.05 50.8549 300.259 50.6466 299.559 50.2299C298.863 49.8133 298.311 49.2072 297.904 48.4118C297.501 47.6163 297.3 46.6504 297.3 45.514C297.3 44.3966 297.497 43.4236 297.89 42.595C298.283 41.7617 298.829 41.1177 299.53 40.6632C300.231 40.2039 301.041 39.9743 301.959 39.9743C302.669 39.9743 303.233 40.0926 303.65 40.3294C304.071 40.5614 304.393 40.8265 304.615 41.1248C304.843 41.4184 305.018 41.6599 305.141 41.8493H305.311V40.1163H306.931V51.3379C306.931 52.2754 306.718 53.0377 306.292 53.6248C305.87 54.2167 305.302 54.6499 304.587 54.9245C303.877 55.2039 303.086 55.3436 302.215 55.3436ZM302.158 49.3493C302.83 49.3493 303.399 49.1954 303.863 48.8876C304.327 48.5798 304.679 48.1371 304.921 47.5595C305.162 46.9818 305.283 46.2905 305.283 45.4856C305.283 44.6996 305.165 44.006 304.928 43.4047C304.691 42.8033 304.341 42.3322 303.877 41.9913C303.413 41.6504 302.84 41.4799 302.158 41.4799C301.448 41.4799 300.856 41.6599 300.382 42.0197C299.914 42.3796 299.561 42.8625 299.324 43.4686C299.092 44.0746 298.976 44.747 298.976 45.4856C298.976 46.2432 299.095 46.9132 299.331 47.4956C299.573 48.0732 299.928 48.5278 300.397 48.8592C300.87 49.1859 301.457 49.3493 302.158 49.3493ZM323.806 40.1163C323.721 39.3966 323.375 38.8379 322.769 38.4402C322.163 38.0424 321.419 37.8436 320.539 37.8436C319.895 37.8436 319.331 37.9477 318.848 38.1561C318.37 38.3644 317.996 38.6509 317.726 39.0154C317.461 39.38 317.328 39.7943 317.328 40.2583C317.328 40.6466 317.421 40.9804 317.605 41.2598C317.795 41.5344 318.036 41.764 318.33 41.9487C318.623 42.1286 318.931 42.2778 319.253 42.3961C319.575 42.5098 319.871 42.6021 320.141 42.6731L321.618 43.0708C321.997 43.1703 322.418 43.3076 322.882 43.4828C323.351 43.658 323.799 43.8971 324.225 44.2001C324.656 44.4984 325.011 44.8819 325.29 45.3507C325.569 45.8194 325.709 46.3947 325.709 47.0765C325.709 47.8625 325.503 48.5727 325.091 49.2072C324.684 49.8417 324.087 50.3459 323.301 50.72C322.52 51.094 321.571 51.2811 320.453 51.2811C319.412 51.2811 318.51 51.113 317.748 50.7768C316.99 50.4406 316.393 49.9719 315.958 49.3706C315.527 48.7692 315.283 48.0708 315.226 47.2754H317.044C317.092 47.8246 317.276 48.2792 317.598 48.639C317.925 48.9941 318.337 49.2593 318.834 49.4345C319.336 49.6049 319.876 49.6902 320.453 49.6902C321.126 49.6902 321.73 49.5813 322.265 49.3635C322.8 49.1409 323.223 48.8332 323.536 48.4402C323.848 48.0424 324.005 47.5784 324.005 47.0481C324.005 46.5652 323.87 46.1722 323.6 45.8691C323.33 45.5661 322.975 45.3199 322.534 45.1305C322.094 44.9411 321.618 44.7754 321.107 44.6333L319.317 44.122C318.181 43.7953 317.281 43.3289 316.618 42.7228C315.955 42.1168 315.624 41.3237 315.624 40.3436C315.624 39.5292 315.844 38.819 316.284 38.2129C316.73 37.6021 317.326 37.1286 318.074 36.7924C318.827 36.4515 319.667 36.2811 320.596 36.2811C321.533 36.2811 322.366 36.4492 323.096 36.7853C323.825 37.1168 324.402 37.5713 324.828 38.149C325.259 38.7266 325.487 39.3824 325.51 40.1163H323.806ZM332.81 51.2527C331.825 51.2527 330.961 51.0183 330.217 50.5495C329.479 50.0808 328.901 49.425 328.484 48.5822C328.072 47.7394 327.866 46.7546 327.866 45.6277C327.866 44.4913 328.072 43.4993 328.484 42.6518C328.901 41.8043 329.479 41.1461 330.217 40.6774C330.961 40.2086 331.825 39.9743 332.81 39.9743C333.795 39.9743 334.656 40.2086 335.395 40.6774C336.138 41.1461 336.716 41.8043 337.128 42.6518C337.545 43.4993 337.753 44.4913 337.753 45.6277C337.753 46.7546 337.545 47.7394 337.128 48.5822C336.716 49.425 336.138 50.0808 335.395 50.5495C334.656 51.0183 333.795 51.2527 332.81 51.2527ZM332.81 49.747C333.558 49.747 334.173 49.5552 334.656 49.1717C335.139 48.7882 335.497 48.2839 335.729 47.6589C335.961 47.0339 336.077 46.3568 336.077 45.6277C336.077 44.8985 335.961 44.219 335.729 43.5893C335.497 42.9596 335.139 42.4506 334.656 42.0623C334.173 41.6741 333.558 41.4799 332.81 41.4799C332.062 41.4799 331.446 41.6741 330.963 42.0623C330.48 42.4506 330.123 42.9596 329.891 43.5893C329.659 44.219 329.543 44.8985 329.543 45.6277C329.543 46.3568 329.659 47.0339 329.891 47.6589C330.123 48.2839 330.48 48.7882 330.963 49.1717C331.446 49.5552 332.062 49.747 332.81 49.747ZM341.988 36.4799V51.0254H340.311V36.4799H341.988ZM351.933 46.5652V40.1163H353.609V51.0254H351.933V49.1788H351.819C351.563 49.7328 351.165 50.2039 350.626 50.5922C350.086 50.9757 349.404 51.1674 348.58 51.1674C347.898 51.1674 347.292 51.0183 346.762 50.72C346.232 50.417 345.815 49.9624 345.512 49.3564C345.209 48.7456 345.058 47.9761 345.058 47.0481V40.1163H346.734V46.9345C346.734 47.7299 346.956 48.3644 347.401 48.8379C347.851 49.3114 348.424 49.5481 349.12 49.5481C349.537 49.5481 349.96 49.4416 350.391 49.2285C350.827 49.0154 351.192 48.6887 351.485 48.2484C351.783 47.8081 351.933 47.247 351.933 46.5652ZM361.423 40.1163V41.5368H355.77V40.1163H361.423ZM357.417 37.5027H359.093V47.9004C359.093 48.3739 359.162 48.729 359.299 48.9657C359.441 49.1977 359.621 49.354 359.839 49.4345C360.062 49.5102 360.296 49.5481 360.542 49.5481C360.727 49.5481 360.878 49.5386 360.997 49.5197C361.115 49.496 361.21 49.4771 361.281 49.4629L361.622 50.9686C361.508 51.0112 361.35 51.0538 361.146 51.0964C360.942 51.1438 360.684 51.1674 360.372 51.1674C359.898 51.1674 359.434 51.0656 358.98 50.862C358.53 50.6584 358.156 50.3483 357.858 49.9316C357.564 49.515 357.417 48.9894 357.417 48.3549V37.5027ZM363.944 51.0254V40.1163H365.62V51.0254H363.944ZM364.797 38.2981C364.47 38.2981 364.188 38.1868 363.951 37.9643C363.719 37.7418 363.603 37.4743 363.603 37.1618C363.603 36.8493 363.719 36.5817 363.951 36.3592C364.188 36.1367 364.47 36.0254 364.797 36.0254C365.123 36.0254 365.403 36.1367 365.635 36.3592C365.871 36.5817 365.99 36.8493 365.99 37.1618C365.99 37.4743 365.871 37.7418 365.635 37.9643C365.403 38.1868 365.123 38.2981 364.797 38.2981ZM373.122 51.2527C372.137 51.2527 371.273 51.0183 370.53 50.5495C369.791 50.0808 369.214 49.425 368.797 48.5822C368.385 47.7394 368.179 46.7546 368.179 45.6277C368.179 44.4913 368.385 43.4993 368.797 42.6518C369.214 41.8043 369.791 41.1461 370.53 40.6774C371.273 40.2086 372.137 39.9743 373.122 39.9743C374.107 39.9743 374.969 40.2086 375.707 40.6774C376.451 41.1461 377.028 41.8043 377.44 42.6518C377.857 43.4993 378.065 44.4913 378.065 45.6277C378.065 46.7546 377.857 47.7394 377.44 48.5822C377.028 49.425 376.451 50.0808 375.707 50.5495C374.969 51.0183 374.107 51.2527 373.122 51.2527ZM373.122 49.747C373.87 49.747 374.486 49.5552 374.969 49.1717C375.452 48.7882 375.809 48.2839 376.041 47.6589C376.273 47.0339 376.389 46.3568 376.389 45.6277C376.389 44.8985 376.273 44.219 376.041 43.5893C375.809 42.9596 375.452 42.4506 374.969 42.0623C374.486 41.6741 373.87 41.4799 373.122 41.4799C372.374 41.4799 371.759 41.6741 371.276 42.0623C370.793 42.4506 370.435 42.9596 370.203 43.5893C369.971 44.219 369.855 44.8985 369.855 45.6277C369.855 46.3568 369.971 47.0339 370.203 47.6589C370.435 48.2839 370.793 48.7882 371.276 49.1717C371.759 49.5552 372.374 49.747 373.122 49.747ZM382.3 44.4629V51.0254H380.624V40.1163H382.243V41.8208H382.385C382.641 41.2669 383.029 40.8218 383.55 40.4856C384.071 40.1447 384.743 39.9743 385.567 39.9743C386.306 39.9743 386.952 40.1258 387.506 40.4288C388.06 40.7271 388.491 41.1816 388.799 41.7924C389.106 42.3985 389.26 43.1655 389.26 44.0936V51.0254H387.584V44.2072C387.584 43.3502 387.362 42.6826 386.917 42.2044C386.471 41.7214 385.861 41.4799 385.084 41.4799C384.549 41.4799 384.071 41.5959 383.65 41.8279C383.233 42.06 382.904 42.3985 382.662 42.8436C382.421 43.2886 382.3 43.8284 382.3 44.4629ZM400.05 42.5595L398.545 42.9856C398.45 42.7347 398.31 42.4908 398.126 42.2541C397.946 42.0126 397.7 41.8137 397.387 41.6575C397.075 41.5012 396.674 41.4231 396.187 41.4231C395.519 41.4231 394.963 41.577 394.518 41.8848C394.077 42.1878 393.857 42.5737 393.857 43.0424C393.857 43.4591 394.009 43.7882 394.312 44.0297C394.615 44.2711 395.088 44.4724 395.732 44.6333L397.352 45.0311C398.327 45.2678 399.054 45.63 399.532 46.1177C400.01 46.6007 400.249 47.2233 400.249 47.9856C400.249 48.6106 400.069 49.1693 399.71 49.6618C399.354 50.1542 398.857 50.5424 398.218 50.8265C397.579 51.1106 396.835 51.2527 395.988 51.2527C394.875 51.2527 393.954 51.0112 393.225 50.5282C392.496 50.0453 392.034 49.3398 391.84 48.4118L393.431 48.014C393.583 48.6011 393.869 49.0415 394.29 49.335C394.717 49.6286 395.273 49.7754 395.96 49.7754C396.741 49.7754 397.361 49.6097 397.82 49.2782C398.284 48.9421 398.516 48.5396 398.516 48.0708C398.516 47.6921 398.384 47.3748 398.119 47.1191C397.853 46.8587 397.446 46.6646 396.897 46.5368L395.079 46.1106C394.08 45.8739 393.346 45.5069 392.877 45.0098C392.413 44.5079 392.181 43.8805 392.181 43.1277C392.181 42.5121 392.354 41.9676 392.7 41.4941C393.05 41.0207 393.526 40.649 394.127 40.3791C394.733 40.1092 395.42 39.9743 396.187 39.9743C397.266 39.9743 398.114 40.211 398.729 40.6845C399.35 41.158 399.79 41.783 400.05 42.5595Z" fill="white"/>
<defs>
<linearGradient id="paint0_linear_288_234" x1="60" y1="51" x2="5.50001" y2="6.5" gradientUnits="userSpaceOnUse">
<stop stop-color="#DB1117"/>
<stop offset="1" stop-color="#ED9108"/>
</linearGradient>
</defs>
</svg>
